<svg xmlns:inkscape="http://www.inkscape.org/namespaces/inkscape" xmlns:sodipodi="http://sodipodi.sourceforge.net/DTD/sodipodi-0.dtd" xmlns="http://www.w3.org/2000/svg" xmlns:svg="http://www.w3.org/2000/svg" version="1.1" id="svg41" sodipodi:docname="India_Post_Logo.cdr" viewBox="185.55 361.69 222.62 117.7">
  <defs id="defs45"/>
  <sodipodi:namedview id="namedview43" pagecolor="#ffffff" bordercolor="#000000" borderopacity="0.25" inkscape:showpageshadow="2" inkscape:pageopacity="0.0" inkscape:pagecheckerboard="0" inkscape:deskcolor="#d1d1d1" inkscape:document-units="pt"/>
  <g id="Layer1000"/>
  <g id="Layer1001">
    <path d="m 253.0865,361.6889 h 1.4786 c 0.358,0.1341 0.737,0.2182 1.0737,0.4051 0.7297,0.3903 1.355,0.9941 1.728,1.7362 0.5278,1.0763 0.593,2.3232 0.4439,3.4951 5.0057,0.004 10.012,0 15.0177,0.002 9e-4,0.2537 0.002,0.5065 0.002,0.7602 -0.9709,9e-4 -1.942,0.007 -2.9129,-0.002 -0.0133,3.8526 -0.003,7.7046 -0.004,11.5563 -0.0272,0.3756 0.1145,0.8368 0.5255,0.934 0.3864,0.0562 0.7798,0.0165 1.1702,0.0247 0.0107,0.2489 0.0133,0.4983 0.009,0.7478 -1.6792,0 -3.3585,-0.005 -5.0368,0.003 -0.0117,-0.2529 -0.005,-0.5066 0.0223,-0.7577 0.3762,-9e-4 0.7569,0.038 1.1316,-0.0207 0.3351,-0.0601 0.4958,-0.411 0.546,-0.7141 0.0808,-0.5516 0.0371,-1.11 0.0281,-1.6645 -0.9332,0.8022 -2.0699,1.3797 -3.2789,1.6226 -0.8787,0.1871 -1.8275,0.0108 -2.5753,-0.4876 -0.9544,-0.5921 -1.5786,-1.5573 -2.086,-2.5333 -0.3855,-0.7568 -0.8937,-1.4907 -1.6472,-1.9196 0.0938,-0.2826 0.2084,-0.5593 0.3467,-0.8238 1.1554,1.0353 2.9789,1.0593 4.2843,0.2948 0.625,-0.3687 0.8779,-1.1126 0.9669,-1.7951 0.0907,-0.8847 0.1318,-1.8046 -0.1565,-2.6595 -0.2231,-0.6177 -0.6137,-1.2115 -1.2042,-1.5293 -0.4002,-0.2208 -0.864,-0.2818 -1.3144,-0.2758 -1.3093,0.003 -2.6189,-0.003 -3.9277,0.005 -0.007,3.8798 -0.003,7.7599 -5e-4,11.6396 -0.0216,0.3632 0.1661,0.7798 0.5575,0.8499 0.3753,0.0453 0.7552,0.0133 1.1322,0.019 0.002,0.2494 0.002,0.4983 0.002,0.7477 -1.6775,-0.009 -3.3551,0.009 -5.0329,-0.007 8e-4,-0.2472 0.003,-0.4933 0.005,-0.7396 0.4133,-0.019 0.8416,0.0575 1.2452,-0.057 0.4094,-0.1769 0.4842,-0.6792 0.4902,-1.0763 0.002,-3.7925 0.009,-7.5858 5e-4,-11.3794 -1.4182,-0.001 -2.8363,0.003 -4.2545,-0.003 -0.0476,1.3252 -0.009,2.6518 -0.0213,3.9779 0.003,2.5259 -0.007,5.0516 0.004,7.5775 -0.0122,0.3626 0.0947,0.8105 0.4893,0.9275 0.3954,0.0831 0.8047,0.0196 1.2064,0.0386 0.004,0.2489 0.007,0.4966 0.007,0.7455 -1.6787,8e-4 -3.3571,0.006 -5.0363,-0.003 0.002,-0.248 0.005,-0.4949 0.01,-0.7421 0.3773,-0.0122 0.7577,0.0306 1.1316,-0.0263 0.3864,-0.0684 0.5428,-0.4893 0.5797,-0.8326 0.0436,-0.555 0.0116,-1.1126 0.0224,-1.6693 -0.0156,-1.0624 0.0691,-2.143 -0.1846,-3.1864 -0.1077,-0.5139 -0.3877,-0.9868 -0.7716,-1.3417 -0.8328,-0.7551 -2.26,-0.9552 -3.1453,-0.1819 -0.7832,0.6726 -1.0369,1.745 -1.1044,2.7334 -0.0479,1.012 -0.0552,2.048 0.2231,3.0314 0.1664,0.6607 0.5701,1.2495 1.1243,1.6446 -0.2413,0.1953 -0.4876,0.3838 -0.7337,0.5718 -0.496,-0.2645 -0.9521,-0.6095 -1.3096,-1.0451 -0.7642,-0.883 -1.1004,-2.0674 -1.106,-3.2202 -0.0289,-1.186 0.2718,-2.4188 1.0408,-3.3472 0.7529,-0.9674 1.9579,-1.5672 3.1899,-1.5392 1.0153,-0.0294 2.0046,0.3657 2.7754,1.0157 8e-4,-1.1778 0.002,-2.3556 8e-4,-3.5334 -0.005,-0.4907 -0.0864,-1.0466 -0.4858,-1.381 -0.2166,-0.1959 -0.5264,-0.2149 -0.8039,-0.2141 -2.8075,0.007 -5.6152,-0.005 -8.4235,0.007 0.9406,0.6761 1.4718,1.7813 1.6538,2.9021 0.2298,1.467 0.0739,3.0943 -0.8748,4.2942 -0.775,1.0386 -2.0463,1.6248 -3.3279,1.6745 0.1721,0.5666 0.5156,1.0556 0.7997,1.5695 0.4603,0.7282 1.0837,1.438 1.9304,1.7033 0.7693,0.2322 1.5664,-0.127 2.143,-0.6301 0.117,0.163 0.2321,0.3285 0.3427,0.4983 -0.2438,0.2387 -0.491,0.4777 -0.7801,0.6613 -0.7668,0.514 -1.7683,0.6662 -2.651,0.396 -0.7356,-0.2114 -1.3391,-0.7197 -1.853,-1.2682 -0.6276,-0.7084 -0.9677,-1.6058 -1.4859,-2.3867 -0.3748,-0.5123 -0.807,-0.9882 -1.3184,-1.3672 0.0527,-0.326 0.1746,-0.6333 0.3237,-0.9255 0.7997,0.8096 2.0531,1.0902 3.1433,0.8178 0.6475,-0.1491 1.3516,-0.4309 1.6628,-1.0641 0.4984,-0.9958 0.4794,-2.147 0.4508,-3.2327 -0.0635,-1.0102 -0.239,-2.1098 -0.9621,-2.874 -0.4553,-0.5083 -1.1364,-0.7742 -1.8128,-0.7719 -1.3011,-0.005 -2.6025,0 -3.9036,0 -0.002,3.8503 -0.002,7.7006 -8e-4,11.5506 -0.0173,0.3527 0.0921,0.7824 0.4612,0.9151 0.4019,0.0938 0.8212,0.0328 1.2305,0.0396 0.009,0.2469 0.0147,0.495 0.0213,0.7419 -1.6793,0.0224 -3.3594,0.002 -5.0386,0.0124 -0.002,-0.2503 -9e-4,-0.5008 0.004,-0.7511 0.4003,-0.0108 0.8096,0.0453 1.2039,-0.0428 0.4603,-0.1713 0.5148,-0.7422 0.5272,-1.1637 0.002,-3.2128 -8e-4,-6.4255 0.002,-9.6375 -0.008,-0.4019 -0.0445,-0.822 -0.2505,-1.1769 -0.1613,-0.2988 -0.495,-0.495 -0.8351,-0.4884 -0.9783,-0.007 -1.9568,0.0116 -2.935,-0.008 -0.0233,3.8529 -0.004,7.7063 -0.009,11.5597 -0.0224,0.3592 0.0978,0.7923 0.4768,0.9176 0.3968,0.0856 0.8096,0.0272 1.2129,0.0377 0.0168,0.2497 0.0224,0.5 0.01,0.7495 -1.6818,-0.005 -3.3633,0.0142 -5.0443,-0.01 0.002,-0.2488 0.0108,-0.4974 0.0371,-0.7438 0.3771,0.002 0.7583,0.0389 1.1331,-0.0198 0.2982,-0.0618 0.4711,-0.3583 0.528,-0.6367 0.0701,-0.3688 0.046,-0.7469 0.0502,-1.1199 -0.007,-1.2025 0.006,-2.405 0,-3.6074 -0.9116,0.0133 -1.8235,-0.003 -2.7351,0.009 0,0.6514 8e-4,1.3019 0.002,1.9533 -0.002,0.6061 -0.0289,1.2255 -0.233,1.8029 -0.2183,0.6168 -0.8022,1.0508 -1.4281,1.1891 -0.7348,0.1656 -1.5271,0.2018 -2.242,-0.0666 -0.8835,-0.3268 -1.6364,-1.078 -1.8396,-2.0137 -0.1089,-0.5327 -0.1038,-1.0936 0.0303,-1.6214 0.2653,-1.0148 1.1795,-1.7938 2.2005,-1.9775 0.7166,-0.1179 1.4463,-0.0207 2.1685,-0.0618 -0.0575,-0.5097 -0.0691,-1.023 -0.0986,-1.5344 -0.6327,0.1806 -1.2971,0.2767 -1.9528,0.1945 -0.8663,-0.1228 -1.6736,-0.6588 -2.0928,-1.4307 -0.5179,-1.0145 -0.4652,-2.3652 0.2687,-3.2655 0.6052,-0.7418 1.5687,-1.1684 2.5257,-1.1316 0.729,0.019 1.5304,0.1443 2.0608,0.6928 0.504,0.4876 0.6052,1.2271 0.6159,1.895 0.0173,1.527 0.01,3.0546 0.0122,4.5825 0.9111,0.0204 1.8227,0.003 2.7335,0.0147 0.007,-1.5318 8e-4,-3.0645 0.003,-4.5964 0.007,-0.5303 -0.0338,-1.1341 -0.4488,-1.5185 -0.4036,-0.3591 -0.9833,-0.2381 -1.4768,-0.2579 0.002,-0.2447 0.005,-0.4902 0.006,-0.7345 8.2902,-0.0198 16.5813,6e-4 24.8712,-0.006 -0.121,-1.0754 -0.0882,-2.2005 0.3104,-3.2201 0.5009,-1.2552 1.6877,-2.198 3.02,-2.4171 z m -0.6636,1.1333 c -0.6202,0.5459 -0.9028,1.3663 -1.0097,2.1642 -0.0963,0.7767 -0.1278,1.5673 -0.028,2.3448 1.5953,-0.009 3.1895,-0.002 4.7848,-0.003 0.1015,-1.0788 0.0956,-2.1923 -0.2091,-3.2391 -0.2109,-0.7132 -0.7132,-1.3819 -1.4298,-1.6381 -0.7025,-0.2529 -1.5514,-0.1475 -2.1082,0.3716 z m -31.6598,4.9447 c -0.3476,0.0939 -0.6441,0.3467 -0.7988,0.671 -0.1854,0.3864 -0.2447,0.8186 -0.2693,1.243 -0.0273,0.7024 -0.0134,1.4238 0.2222,2.0951 0.1517,0.3846 0.4686,0.7296 0.8804,0.8308 0.3549,0.0652 0.7569,0.0167 1.0361,-0.2305 0.6211,-0.4728 0.7965,-1.3005 0.8203,-2.0392 0.0264,-0.7872 -0.0997,-1.6659 -0.6851,-2.2442 -0.3047,-0.3203 -0.7826,-0.4306 -1.2058,-0.326 z m 44.3188,1.0392 c 0.635,0.8895 0.8748,2.0194 0.8039,3.0991 -0.0765,0.9933 -0.5766,1.9296 -1.3178,2.5878 -0.7971,0.7568 -1.9015,1.0788 -2.9756,1.1506 0.341,0.8169 0.6673,1.6982 1.3615,2.2878 0.5624,0.447 1.2518,0.8087 1.9888,0.7841 1.2042,0.006 2.3423,-0.5593 3.2533,-1.3128 0.1678,-0.0997 0.1029,-0.3172 0.1293,-0.4787 0.002,-2.3329 0,-4.6661 8e-4,-6.9993 -0.01,-0.4335 -0.008,-0.8904 -0.2168,-1.2833 -0.1522,-0.3285 -0.5015,-0.5632 -0.8671,-0.5519 -0.9604,-6e-4 -1.9196,-0.007 -2.8792,0.009 0.2322,0.2438 0.527,0.4243 0.7189,0.7075 z m -44.4169,6.1753 c -0.5485,0.2123 -0.8127,0.8096 -0.8969,1.3555 -0.1077,0.8113 -0.1383,1.6546 0.0768,2.4517 0.0961,0.3889 0.358,0.7404 0.7197,0.9193 0.4893,0.2387 1.1152,0.0921 1.4692,-0.3138 0.523,-0.5718 0.6458,-1.3887 0.6242,-2.1356 -0.0164,-0.7232 -0.1686,-1.5211 -0.7395,-2.0203 -0.3243,-0.3155 -0.8317,-0.4249 -1.2535,-0.2568 z" style="fill:#b02925;fill-rule:evenodd" id="path3"/>
    <path d="m 276.5784,367.3287 c 9.7305,-0.004 19.4618,0 29.1931,-0.002 10e-4,0.2528 10e-4,0.5065 6e-4,0.7602 -2.0713,0.002 -4.1417,0.004 -6.213,-8e-4 -0.0164,1.0352 -0.008,2.0713 -0.003,3.1065 1.3768,-1.0435 3.4943,-0.9958 4.7767,0.1854 1.0425,0.8926 1.5003,2.3091 1.4363,3.6541 0.004,1.2583 -0.4819,2.5455 -1.4587,3.3676 -1.0029,0.9232 -2.5291,1.125 -3.7868,0.6579 0.1244,-0.2067 0.2514,-0.4125 0.379,-0.6177 0.5156,0.2636 1.1389,0.3047 1.6792,0.0907 0.5814,-0.2472 1.0072,-0.7784 1.2189,-1.3646 0.3203,-0.8648 0.345,-1.8011 0.3246,-2.713 -0.019,-0.7206 -0.1236,-1.4528 -0.4235,-2.1141 -0.3147,-0.6548 -0.9428,-1.2155 -1.6966,-1.2469 -0.5938,-0.0525 -1.2138,0.1559 -1.6214,0.5972 -0.6012,0.6211 -0.7784,1.5219 -0.8286,2.3545 -0.007,1.8935 -0.005,3.7859 -0.002,5.6786 -0.0255,0.3657 0.173,0.779 0.5607,0.8541 0.3742,0.0354 0.7521,0.006 1.1285,0.0108 0.003,0.2503 9e-4,0.5006 -0.003,0.7509 -1.675,-0.006 -3.3494,0.002 -5.0244,-0.005 -0.002,-0.2463 -0.002,-0.4932 -8e-4,-0.7395 0.3911,-0.019 0.7905,0.0354 1.1783,-0.0411 0.3008,-0.0751 0.4638,-0.383 0.5156,-0.6673 0.0856,-0.4629 0.023,-0.9363 0.0502,-1.4034 -0.7872,0.551 -1.7441,0.8838 -2.7127,0.7982 -1.3318,-0.057 -2.5161,-0.9638 -3.1009,-2.1314 -0.481,-0.9569 -0.5641,-2.0639 -0.4365,-3.1133 0.1525,-1.1843 0.7914,-2.3159 1.7972,-2.9786 1.3252,-0.8895 3.2028,-0.7883 4.4529,0.1933 -0.0238,-0.6851 0.0272,-1.3728 -0.0363,-2.0557 -0.0584,-0.5023 -0.3787,-1.0879 -0.9445,-1.1043 -2.264,-10e-4 -4.528,-0.004 -6.7912,0.002 0.002,3.8766 -0.003,7.7524 0.002,11.6288 -0.0141,0.3526 0.1474,0.7793 0.5304,0.8598 0.3869,0.0496 0.779,0.009 1.1687,0.0232 10e-4,0.2486 10e-4,0.4981 -0.006,0.7478 -1.675,-0.009 -3.3503,-0.005 -5.0253,-0.002 -0.004,-0.2495 -0.003,-0.4983 0.009,-0.7469 0.4685,-0.0536 1.0202,0.1366 1.423,-0.1803 0.3747,-0.4071 0.3007,-1.0106 0.3121,-1.5214 0,-3.6031 0.004,-7.2062 0.003,-10.8102 -1.0089,-0.007 -2.0169,-0.002 -3.0257,0 -0.005,1.7221 5e-4,3.4444 -0.003,5.1673 -0.5273,0.004 -1.0534,0.003 -1.5789,0.002 -0.0428,-0.5797 0.1097,-1.2189 -0.2274,-1.7368 -0.3588,-0.6665 -1.1324,-0.9859 -1.8604,-0.9967 -0.6012,-0.0402 -1.2393,0.089 -1.7013,0.4958 -0.6358,0.5527 -0.7637,1.5599 -0.3626,2.2856 0.2226,0.4405 0.6687,0.7477 1.1549,0.8226 1.3011,0.1788 2.6328,0.0354 3.9274,0.2783 0.6868,0.1608 1.2832,0.6228 1.6645,1.2099 0.5675,0.9042 0.5904,2.0812 0.1953,3.0563 -0.6605,1.5517 -2.2913,2.6076 -3.9648,2.6708 -1.4091,0.1499 -2.8503,-0.3229 -3.93,-1.232 -1.7033,-1.3407 -2.6288,-3.4358 -2.9633,-5.536 0.2233,-0.0108 0.4456,-0.0207 0.6695,-0.0298 0.1664,1.1985 0.5848,2.3695 1.2932,3.3562 0.7024,0.9899 1.6727,1.8414 2.861,2.1751 0.9924,0.2627 2.1076,0.2848 3.0356,-0.2075 0.7019,-0.3376 1.2314,-0.9811 1.4874,-1.7116 0.1992,-0.6086 0.1533,-1.2739 -0.0105,-1.8842 -0.2053,-0.6746 -0.8666,-1.1027 -1.5435,-1.1826 -1.1769,-0.1533 -2.3868,0.0782 -3.5495,-0.2151 -0.6327,-0.1605 -1.2742,-0.4323 -1.7048,-0.9411 -0.5134,-0.5982 -0.5922,-1.4965 -0.2826,-2.2074 0.2973,-0.6769 0.9677,-1.0944 1.6339,-1.3498 1.3498,-0.4612 2.8817,-0.3952 4.1714,0.2264 -0.0189,-0.6216 0.0726,-1.2738 -0.1612,-1.866 -0.1443,-0.3773 -0.5117,-0.6721 -0.9267,-0.6523 -2.1093,-0.002 -4.2191,0.004 -6.3283,-0.002 -9e-4,-0.2529 8e-4,-0.5049 0.005,-0.7577 z m 18.2931,3.884 c -0.6574,0.2619 -1.1027,0.887 -1.3113,1.5432 -0.2971,0.9473 -0.2923,1.957 -0.2362,2.9387 0.0766,0.8325 0.2486,1.7237 0.8442,2.3536 0.6364,0.7248 1.8397,0.8138 2.5926,0.22 0.5921,-0.4465 0.8804,-1.177 1.0119,-1.8859 0.1763,-1.0197 0.1741,-2.0673 0.0142,-3.0884 -0.1202,-0.7217 -0.4399,-1.4578 -1.0658,-1.8779 -0.5335,-0.3614 -1.2501,-0.4232 -1.8496,-0.2033 z" style="fill:#b02925;fill-rule:evenodd" id="path5"/>
    <path d="m 218.2513,386.6258 c 35.6853,-0.003 71.3707,0 107.0569,-8e-4 4.5493,0.007 9.0998,-0.0139 13.6482,0.01 l 0.1038,0.0198 c -3.4812,2.4665 -6.95,4.9522 -10.4057,7.454 -5.1375,3.7333 -10.2915,7.4444 -15.4519,11.1447 -2.5903,1.8332 -5.186,3.6576 -7.7993,5.4578 -1.2197,0.8088 -2.4321,1.6291 -3.6502,2.441 -5.4751,3.5974 -11.1058,7.0021 -17.098,9.6746 -3.2136,1.4221 -6.5764,2.5974 -10.0774,3.0365 -1.9766,0.2273 -4.0173,0.3087 -5.9494,-0.2486 -1.4536,-0.4144 -2.7961,-1.1721 -3.9532,-2.1373 -1.0896,-0.8862 -1.9766,-1.9806 -2.9285,-3.0045 -2.2098,-2.5061 -4.4186,-5.0162 -6.7617,-7.3998 -4.0635,-4.0683 -8.6516,-7.6113 -13.612,-10.5177 -0.2256,-0.1335 -0.4538,-0.3016 -0.7279,-0.2974 -3.4427,-0.1111 -6.8851,0.061 -10.3196,0.2818 0.542,0.2075 1.1152,0.3178 1.6637,0.5071 2.9665,0.9621 5.743,2.4222 8.4064,4.0266 2.4081,1.4718 4.7248,3.0892 6.9565,4.8147 1.7657,1.3167 3.4064,2.7918 5.0199,4.2882 1.5738,1.5047 3.0966,3.0677 4.4711,4.7586 1.8547,2.2648 3.6995,4.6284 6.1841,6.2436 1.5213,1.0326 3.2646,1.7163 5.0601,2.0933 1.6463,0.3739 3.3471,0.3739 5.0255,0.2957 2.035,-0.1497 4.047,-0.559 5.9973,-1.1571 2.9038,-0.8909 5.699,-2.1042 8.4183,-3.4515 5.6333,-2.8545 10.9503,-6.2889 16.1085,-9.9198 7.9761,-5.5542 15.7269,-11.4222 23.4626,-17.3041 4.9192,-3.7046 9.7824,-7.4849 14.7634,-11.1067 3.1898,-0.008 6.3794,-0.003 9.5701,-0.002 l -0.0891,0.0782 c -1.5755,1.0318 -3.128,2.1002 -4.6754,3.1748 -10.4224,7.1759 -20.5515,14.7651 -30.8651,22.0941 -2.4953,1.8003 -5.0346,3.5379 -7.567,5.2849 -5.2016,3.5552 -10.512,6.9664 -16.0654,9.9502 -2.9682,1.6101 -6.0276,3.0622 -9.1936,4.2415 -3.4869,1.2889 -7.1393,2.2425 -10.8686,2.3884 -3.2292,0.1401 -6.5021,-0.4654 -9.4241,-1.8581 -2.8686,-1.419 -5.1432,-3.7703 -7.0803,-6.2713 -0.9463,-1.173 -1.783,-2.4305 -2.7811,-3.5612 -1.5081,-1.7501 -3.1238,-3.409 -4.8362,-4.9604 -4.2809,-3.9177 -9.1678,-7.1197 -14.275,-9.8523 -3.1329,-1.6572 -6.3703,-3.1315 -9.7271,-4.2761 -0.3427,-0.1088 -0.7033,-0.005 -1.0525,-8e-4 -1.3918,0.1145 -2.7904,0.1845 -4.1749,0.3738 -0.1768,0.023 -0.3549,0.0321 -0.5317,0.0437 0.0229,-4.7874 0.003,-9.5749 0.01,-14.3615 0.009,-0.8294 -0.0187,-1.6602 0.0159,-2.4888 z" style="fill:#b02925;fill-rule:evenodd" id="path7"/>
    <path d="m 345.8472,392.9335 c 2.6957,-1.9741 5.396,-3.9441 8.1476,-5.84 9e-4,1.9659 0.002,3.9311 0,5.897 -0.0641,0.0535 -0.131,0.1037 -0.195,0.1522 -10.6044,7.1444 -20.7698,14.9082 -31.1344,22.3906 -2.5687,1.8924 -5.1902,3.7116 -7.7918,5.5581 -4.9085,3.46 -9.8813,6.8341 -15.0228,9.9389 -2.8191,1.6942 -5.6752,3.329 -8.6139,4.8055 -3.1295,1.5633 -6.325,3.0184 -9.6645,4.0768 -3.6995,1.1784 -7.5455,2.0211 -11.4429,2.0466 -3.2794,0.0757 -6.5721,-0.4966 -9.629,-1.686 -2.9559,-1.1792 -5.6735,-2.9449 -7.9707,-5.1455 -1.1001,-1.0502 -2.0276,-2.2609 -2.973,-3.4474 -0.8671,-1.1087 -1.667,-2.2723 -2.6059,-3.324 -3.1433,-3.7335 -6.8678,-6.9576 -10.9057,-9.6893 -5.2577,-3.5646 -11.1206,-6.1325 -17.1079,-8.1987 -0.2413,-0.0774 -0.4902,-0.1434 -0.7067,-0.2783 0.009,-1.1821 0.005,-2.3639 8e-4,-3.5456 2.5696,0.705 5.0848,1.6035 7.5646,2.577 3.3633,1.3356 6.6413,2.8842 9.8226,4.6094 6.0763,3.357 11.5679,7.806 15.9792,13.1765 0.919,1.1603 1.8422,2.3182 2.7958,3.4507 1.9026,2.1257 4.1805,3.9325 6.7419,5.2001 1.586,0.741 3.2513,1.3275 4.9703,1.6767 2.1075,0.4382 4.2726,0.5658 6.4204,0.4348 2.0549,-0.1162 4.0833,-0.5057 6.0772,-1.0031 3.3469,-0.8564 6.573,-2.134 9.6826,-3.6295 5.8952,-2.8338 11.4273,-6.353 16.829,-10.0262 5.0023,-3.5421 9.97,-7.1353 14.8728,-10.8158 l 0.1007,0.1664 c -0.0108,-0.061 -0.0233,-0.1219 -0.0338,-0.1815 1.0457,-0.8299 2.1388,-1.6001 3.1947,-2.4162 5.1423,-3.8608 10.2691,-7.7409 15.4171,-11.5926 2.3966,-1.7748 4.7692,-3.5824 7.1807,-5.3376 z" style="fill:#b02925;fill-rule:evenodd" id="path9"/>
    <path d="m 339.2736,407.361 c 4.8566,-3.6717 9.7674,-7.2715 14.7255,-10.8037 -0.007,22.4909 -0.003,44.9827 -0.002,67.4745 -45.2512,0.002 -90.5015,-9e-4 -135.7529,0.002 -0.0255,-15.8556 0.008,-31.7109 -0.0165,-47.5657 0.4867,0.0692 0.9389,0.2736 1.4091,0.4085 5.5438,1.8961 10.8837,4.4425 15.7238,7.7556 1.7649,1.2257 3.4549,2.5622 5.0346,4.0192 1.3054,1.1348 2.5084,2.3826 3.6533,3.678 0.7543,0.7914 1.3754,1.6948 2.0753,2.5325 0.7733,0.9275 1.5046,1.891 2.334,2.7714 2.1149,2.2672 4.5734,4.2265 7.297,5.7155 2.8488,1.5542 5.9774,2.5826 9.1853,3.062 2.0671,0.341 4.1721,0.379 6.2615,0.2761 2.0276,-0.1097 4.0462,-0.3782 6.0335,-0.8 3.1454,-0.6669 6.1892,-1.7376 9.1622,-2.9491 4.7117,-2.0234 9.2489,-4.4422 13.5981,-7.1544 2.7524,-1.6908 5.4297,-3.4977 8.0991,-5.3152 2.5611,-1.7385 5.0672,-3.5569 7.5719,-5.3756 2.3661,-1.7476 4.7461,-3.4762 7.0943,-5.2492 5.5236,-4.1344 11.0052,-8.3248 16.5126,-12.4821 z" style="fill:#b02925;fill-rule:evenodd" id="path11"/>
    <path d="m 313.0773,469.2977 c 0.8186,-0.0238 1.6356,-0.0899 2.455,-0.0998 -0.006,2.8446 -0.002,5.6894 -0.002,8.5349 0,0.2973 0.0224,0.657 0.2925,0.845 0.2628,0.172 0.597,0.1012 0.8944,0.1193 0.002,0.1647 0.004,0.3294 0.007,0.4966 -0.7115,0.005 -1.4222,9e-4 -2.1331,0.004 -0.0714,-0.4184 -0.1046,-0.8408 -0.176,-1.2583 -0.3172,0.5468 -0.7668,1.0616 -1.3887,1.256 -0.5947,0.1755 -1.2725,0.1146 -1.8028,-0.2165 -0.6367,-0.3921 -1.0911,-1.0528 -1.2725,-1.7742 -0.1894,-0.7132 -0.1942,-1.4724 -0.0321,-2.1915 0.1837,-0.7832 0.6696,-1.5029 1.359,-1.9247 0.6902,-0.4224 1.6239,-0.4825 2.3167,-0.0329 0.3549,0.2117 0.6052,0.5502 0.8326,0.8878 -0.0156,-1.1826 0.002,-2.3661 -0.008,-3.5478 0.007,-0.2339 -0.1686,-0.4408 -0.3829,-0.5117 -0.3073,-0.1094 -0.6384,-0.0848 -0.957,-0.0879 -0.002,-0.1672 -0.002,-0.3336 -8e-4,-0.4983 z m -0.8524,4.0751 c -0.4414,0.1505 -0.7781,0.5369 -0.9085,0.9808 -0.2174,0.7157 -0.2248,1.4774 -0.1729,2.2187 0.0601,0.5995 0.1335,1.2707 0.5972,1.7098 0.3861,0.438 1.0829,0.5213 1.5837,0.2395 0.4522,-0.2636 0.7767,-0.7214 0.9298,-1.2163 0.1803,-0.6095 0.1928,-1.2552 0.1517,-1.8845 -0.0678,-0.6959 -0.3297,-1.4255 -0.9077,-1.8561 -0.3566,-0.2818 -0.8501,-0.3155 -1.2733,-0.1919 z" style="fill:#b02925;fill-rule:evenodd" id="path13"/>
    <path d="m 318.5952,469.2053 c 0.5182,-0.1193 1.0426,0.4416 0.864,0.9496 -0.1038,0.383 -0.5443,0.6228 -0.9224,0.5108 -0.3186,-0.0981 -0.5831,-0.4167 -0.5445,-0.7594 0.007,-0.3328 0.2792,-0.6384 0.6029,-0.701 z" style="fill:#b02925;fill-rule:evenodd" id="path15"/>
    <path d="m 297.343,469.7966 c -9e-4,-0.1678 0,-0.3342 0.002,-0.4997 1.5186,0.005 3.0374,8e-4 4.5559,0.002 -0.002,0.1647 0,0.3311 0.002,0.498 -0.4431,0.008 -0.8969,-0.0385 -1.3283,0.0783 -0.2498,0.0842 -0.2274,0.3971 -0.2489,0.6094 -0.002,2.4965 -0.004,4.9935 8e-4,7.4897 0.019,0.2356 -0.0107,0.5823 0.2784,0.6648 0.4226,0.1111 0.8688,0.0294 1.3014,0.0632 -0.003,0.1638 -0.005,0.3294 -0.003,0.4958 -1.5211,-0.007 -3.0424,0.002 -4.5627,-0.005 0.002,-0.1681 0.005,-0.3336 0.01,-0.4983 0.4266,-0.0108 0.8606,0.0337 1.2824,-0.0493 0.3038,-0.0561 0.2724,-0.4292 0.2922,-0.6656 0.004,-2.4987 0.005,-4.9975 -8e-4,-7.4962 -0.0114,-0.2058 0.01,-0.5049 -0.2274,-0.5905 -0.4348,-0.1539 -0.9034,-0.0791 -1.3538,-0.0972 z" style="fill:#b02925;fill-rule:evenodd" id="path17"/>
    <path d="m 330.2388,469.8017 c -0.008,-0.1729 8e-4,-0.345 0.0323,-0.5131 1.6957,0.0272 3.3922,-0.002 5.0887,0.0139 0.6985,0.0389 1.4264,0.1548 2.0194,0.5536 0.5806,0.3796 1.0032,1.0015 1.0996,1.6932 0.1145,0.7633 -0.0298,1.6347 -0.6177,2.1809 -0.7049,0.6282 -1.6446,0.9675 -2.5835,0.9939 -0.6837,0.0198 -1.3671,0.002 -2.05,0.0116 0.007,1.1653 -0.0181,2.3315 0.0125,3.496 -0.0142,0.2602 0.233,0.4356 0.4725,0.4546 0.4218,0.0216 0.8459,0.006 1.2694,0.008 10e-4,0.1663 0.003,0.3327 0.007,0.5008 -1.5829,0.003 -3.1652,-8e-4 -4.7481,0.002 -0.0113,-0.1696 -0.005,-0.3385 0.0207,-0.504 0.3969,-0.004 0.7963,0.024 1.1934,-0.0165 0.2123,-0.0238 0.3557,-0.2412 0.3416,-0.4462 8e-4,-2.6107 0.002,-5.2222 -6e-4,-7.8332 0.0165,-0.2106 -0.066,-0.4536 -0.2852,-0.5205 -0.4132,-0.1193 -0.8498,-0.0708 -1.2724,-0.0748 z m 3.077,0.1945 c -0.1293,0.191 -0.0749,0.4339 -0.0882,0.6514 -8e-4,1.199 -0.003,2.3989 9e-4,3.5988 0.6579,-0.0113 1.3192,0.0281 1.9766,-0.0411 0.5558,-0.0643 1.1523,-0.284 1.4493,-0.7897 0.3419,-0.612 0.351,-1.3459 0.2875,-2.0254 -0.0533,-0.5771 -0.3762,-1.1511 -0.9156,-1.3983 -0.6259,-0.275 -1.3252,-0.2438 -1.9931,-0.2381 -0.2497,0.0173 -0.5561,0.0198 -0.7174,0.2424 z" style="fill:#b02925;fill-rule:evenodd" id="path19"/>
    <path d="m 351.0539,470.3304 c 0.1391,-0.019 0.2783,-0.0355 0.4232,-0.0477 0.0941,0.8516 0.0181,1.717 0.0405,2.5753 0.6752,0.007 1.3507,-0.005 2.0268,0.007 -0.004,0.2058 -0.007,0.4119 -0.0108,0.6194 -0.6704,-0.007 -1.3399,0 -2.0095,-0.003 -0.01,1.3623 -0.006,2.7252 -0.002,4.0876 -0.007,0.3722 0.1599,0.788 0.5247,0.9388 0.3722,0.1755 0.8368,0.0198 1.0789,-0.2999 0.322,-0.4028 0.3829,-0.9388 0.4136,-1.4363 0.153,0 0.307,8e-4 0.4634,0.006 -0.0674,0.648 -0.1332,1.3669 -0.6004,1.8686 -0.6241,0.7223 -1.853,0.7872 -2.5628,0.1605 -0.36,-0.3342 -0.4612,-0.8482 -0.443,-1.3193 0,-1.3359 0.003,-2.6708 -0.002,-4.0067 -0.3626,0.002 -0.724,8e-4 -1.0848,0.002 -0.002,-0.1565 -0.002,-0.3104 -0.001,-0.4644 0.4266,-0.0949 0.8554,-0.2786 1.1298,-0.6344 0.4522,-0.5805 0.584,-1.3348 0.6152,-2.0522 z" style="fill:#b02925;fill-rule:evenodd" id="path21"/>
    <path d="m 340.1646,472.7435 c 0.7792,-0.163 1.6364,-0.0312 2.2921,0.4374 0.7149,0.4884 1.1744,1.3011 1.288,2.1543 0.1613,1.12 -0.0592,2.395 -0.9306,3.1864 -0.6466,0.5947 -1.5616,0.8961 -2.4347,0.7733 -0.7032,-0.0774 -1.3439,-0.4793 -1.7813,-1.0261 -0.4901,-0.5814 -0.7041,-1.3499 -0.7304,-2.0985 -0.0312,-0.7115 0.1063,-1.4411 0.4685,-2.0605 0.402,-0.667 1.0576,-1.2008 1.8284,-1.3663 z m 0.4192,0.4275 c -0.5879,0.0782 -1.0335,0.5757 -1.2379,1.106 -0.2619,0.7353 -0.2676,1.5327 -0.2265,2.3043 0.0536,0.6679 0.1962,1.3935 0.7093,1.8703 0.5541,0.5715 1.5862,0.51 2.0902,-0.0995 0.5378,-0.5907 0.5922,-1.4315 0.6373,-2.1892 0.004,-0.8169 -0.003,-1.7195 -0.5114,-2.404 -0.3237,-0.4587 -0.9133,-0.6761 -1.461,-0.5879 z" style="fill:#b02925;fill-rule:evenodd" id="path23"/>
    <path d="m 344.8392,473.4592 c 0.5377,-0.6772 1.5171,-0.8501 2.3176,-0.6193 0.3121,0.0731 0.578,0.2576 0.8606,0.4028 0.2256,-0.1724 0.3747,-0.5644 0.7206,-0.4349 0.047,0.7388 0.1102,1.4775 0.1638,2.217 -0.1522,-8e-4 -0.3013,-8e-4 -0.4496,0 -0.1318,-0.4127 -0.3056,-0.8203 -0.5879,-1.1531 -0.5298,-0.6341 -1.514,-0.8144 -2.2453,-0.4496 -0.4791,0.2364 -0.7444,0.9068 -0.4003,1.3606 0.3898,0.4635 1.0438,0.5188 1.6005,0.629 0.6531,0.1384 1.3836,0.1854 1.9105,0.6441 0.3535,0.322 0.6047,0.7784 0.6302,1.2617 0.0181,0.5808 -0.3453,1.0947 -0.7719,1.4544 -0.5006,0.4473 -1.2073,0.5865 -1.8604,0.5372 -0.5442,-0.0405 -1.0468,-0.286 -1.4856,-0.5964 -0.1457,0.1616 -0.2801,0.3328 -0.4292,0.4901 -0.1012,0.1259 -0.2823,0.0445 -0.4184,0.0635 -0.0272,-0.8311 -0.0986,-1.6597 -0.1236,-2.4897 0.1401,-0.002 0.2826,-0.002 0.4266,-0.002 0.22,0.5023 0.4102,1.0378 0.7997,1.4403 0.4037,0.4564 1.0403,0.6319 1.6333,0.6029 0.411,-0.0221 0.8541,-0.1391 1.1299,-0.466 0.2982,-0.3387 0.3393,-0.921 0.003,-1.2469 -0.1871,-0.2101 -0.4762,-0.2645 -0.733,-0.3328 -0.6531,-0.1466 -1.3161,-0.2554 -1.9545,-0.4595 -0.4536,-0.1452 -0.8711,-0.4612 -1.0556,-0.9102 -0.2948,-0.6358 -0.1279,-1.4196 0.3186,-1.9435 z" style="fill:#b02925;fill-rule:evenodd" id="path25"/>
    <path d="m 302.3059,472.9263 c 0.6959,-0.0289 1.3901,-0.0921 2.086,-0.1179 0.0907,0.4499 0.1284,0.906 0.1953,1.3598 0.364,-0.5953 0.9173,-1.1084 1.6141,-1.2674 0.6497,-0.1516 1.4164,-0.1219 1.9437,0.3342 0.4892,0.4434 0.6843,1.1302 0.6933,1.7742 0.0199,1.0452 -0.005,2.0917 0.0134,3.1377 -0.003,0.1811 0.0583,0.402 0.2452,0.4768 0.2687,0.1037 0.5652,0.0587 0.8484,0.0743 0.002,0.1646 0.004,0.3293 0.008,0.4957 -1.1027,0.004 -2.2057,0.007 -3.3083,-8e-4 0.002,-0.1673 0.005,-0.3328 0.01,-0.4975 0.3254,-0.0255 0.7223,0.0643 0.9777,-0.1959 0.1357,-0.136 0.1012,-0.3475 0.115,-0.5207 -0.006,-0.9082 0.006,-1.8167 -0.007,-2.7244 -0.01,-0.5105 -0.1219,-1.0746 -0.5327,-1.4181 -0.4827,-0.3878 -1.2084,-0.3515 -1.718,-0.0346 -0.5749,0.3699 -0.8788,1.0615 -0.9012,1.7305 -0.0238,0.8144 -0.005,1.6297 -0.0122,2.4443 -0.002,0.2296 0.0139,0.5171 0.243,0.6441 0.2735,0.0995 0.5748,0.0674 0.8631,0.0774 -8e-4,0.1646 9e-4,0.331 0.003,0.4983 -1.1066,-9e-4 -2.2135,0.002 -3.3205,-0.002 0.003,-0.1673 0.007,-0.332 0.0122,-0.4958 0.3674,-0.0164 0.972,0.0814 1.0806,-0.398 0.0241,-1.3144 0.002,-2.6294 0.01,-3.9447 0.004,-0.267 9e-4,-0.5726 -0.2092,-0.7684 -0.2438,-0.2676 -0.6349,-0.2053 -0.957,-0.2339 9e-4,-0.1434 9e-4,-0.2866 0.004,-0.4275 z" style="fill:#b02925;fill-rule:evenodd" id="path27"/>
    <path d="m 323.1198,472.8251 c 0.7067,-0.1295 1.4687,-0.1253 2.1382,0.163 0.5508,0.2265 0.9709,0.7716 0.9873,1.3762 0.0159,1.1776 -0.002,2.3562 0.007,3.534 0.004,0.2823 0.0576,0.6259 0.3286,0.7807 0.265,0.0963 0.5351,-0.0338 0.7767,-0.1401 0.0609,0.1111 0.1284,0.2217 0.1785,0.3419 -0.4067,0.5425 -1.2798,0.6786 -1.8226,0.2611 -0.2586,-0.2217 -0.4009,-0.5403 -0.5318,-0.8459 -0.4176,0.3441 -0.7909,0.7724 -1.3195,0.9471 -0.6721,0.2052 -1.4208,0.2052 -2.0761,-0.0559 -0.593,-0.2455 -0.9712,-0.9127 -0.8329,-1.5469 0.1055,-0.6315 0.6285,-1.0845 1.1639,-1.3745 0.9273,-0.4949 1.9741,-0.7058 3.0085,-0.8376 -0.038,-0.5477 0.1417,-1.1835 -0.2413,-1.6452 -0.5601,-0.701 -1.6934,-0.6894 -2.372,-0.1732 -0.2667,0.1805 -0.0181,0.4637 0.0933,0.6599 0.1743,0.2378 0.1695,0.5913 -0.029,0.8152 -0.3361,0.3804 -1.055,0.2619 -1.2469,-0.21 -0.1457,-0.3311 -0.0791,-0.7215 0.1185,-1.0154 0.3764,-0.5649 1.0105,-0.921 1.6718,-1.0344 z m -0.2684,3.7182 c -0.5905,0.3461 -0.8005,1.139 -0.5598,1.7601 0.1357,0.3458 0.5014,0.5757 0.8736,0.5567 0.7866,0.0264 1.5097,-0.523 1.8045,-1.2345 0.2257,-0.5584 0.1466,-1.1761 0.1483,-1.7626 -0.7733,0.1469 -1.5798,0.2719 -2.2666,0.6803 z" style="fill:#b02925;fill-rule:evenodd" id="path29"/>
    <path d="m 317.0089,472.9238 c 0.8269,-0.0148 1.6546,-0.0355 2.4815,-0.0717 0.0124,1.836 -0.0182,3.6739 0.015,5.5097 0.1414,0.5034 0.7979,0.2865 1.1843,0.3345 -8e-4,0.1646 0,0.3302 9e-4,0.4974 -1.1852,0.005 -2.3704,9e-4 -3.5555,0.004 -0.003,-0.1664 -0.004,-0.3317 -0.004,-0.4966 0.36,-0.046 0.7931,0.098 1.0987,-0.1488 0.1862,-0.2265 0.1202,-0.5503 0.1375,-0.8212 -0.008,-1.1827 0,-2.3644 -0.003,-3.5465 8e-4,-0.2239 -0.0709,-0.4677 -0.2676,-0.5935 -0.3172,-0.2217 -0.7282,-0.1508 -1.0905,-0.1656 -9e-4,-0.1689 0,-0.3362 0.003,-0.5017 z" style="fill:#b02925;fill-rule:evenodd" id="path31"/>
  </g>
  <g id="Layer1002">
    <path d="m 392.6336,364.5269 c 0.1746,0.019 0.3929,-0.0601 0.5468,0.0468 -0.1293,0.0462 -0.2719,0.0471 -0.4011,0.0561 0.007,0.0338 0.0232,0.1012 0.0314,0.135 -0.1647,0.0314 -0.3756,-0.0105 -0.4637,0.1655 -0.1301,0.0289 -0.2563,0.057 -0.3813,0.0833 l 0.0114,0.0817 c -0.1358,0.0246 -0.3005,0.0212 -0.3705,0.1638 -0.1228,0.0346 -0.2818,0.0148 -0.322,0.1622 -0.1457,0.0272 -0.2832,0.0717 -0.3904,0.172 -0.1525,0.038 -0.3038,0.07 -0.4529,0.099 -0.0148,0.1771 -0.1968,0.14 -0.3187,0.1655 -0.0496,0.1219 -0.1913,0.1244 -0.2899,0.1672 l 0.007,0.0701 c -0.1327,0.0238 -0.2619,0.051 -0.3886,0.0805 -0.0808,0.1318 -0.2421,0.1318 -0.3722,0.1647 l 0.0255,0.079 c -0.1378,0.0264 -0.2883,0.0338 -0.3807,0.1491 -0.3549,0.1639 -0.7322,0.2999 -1.0565,0.5108 -0.0933,0.0329 -0.1811,0.065 -0.267,0.0987 -0.1276,0.0856 -0.2741,0.1318 -0.3969,0.2183 -0.1179,0.0501 -0.2503,0.0725 -0.3376,0.1689 -0.1236,0.0295 -0.2602,0.0394 -0.322,0.1647 -0.2364,0.0791 -0.472,0.1704 -0.6687,0.326 -0.1114,0.0496 -0.2571,0.0553 -0.3073,0.178 -0.1269,0.0312 -0.3016,8e-4 -0.3393,0.1613 -0.1097,0.0173 -0.2316,0.0181 -0.2537,0.1525 -0.1335,0.0312 -0.2619,0.0618 -0.3894,0.0904 l 0.0212,0.0899 c -0.1284,0.0363 -0.3294,-0.0156 -0.3583,0.1547 -0.364,0.0825 -0.6497,0.3419 -1.0046,0.444 -0.0502,0.1227 -0.2035,0.1054 -0.3007,0.1508 l 0.0207,0.0674 c -0.3541,0.0964 -0.6333,0.36 -0.995,0.4383 l 0.008,0.0592 c -0.2106,0.0652 -0.3852,0.2092 -0.5987,0.2594 l 0.0207,0.07 c -0.1071,0.0272 -0.2109,0.057 -0.3112,0.089 -0.0743,0.1088 -0.201,0.1409 -0.3138,0.1828 -0.2092,0.1483 -0.4408,0.2727 -0.6919,0.3263 l 0.005,0.0527 c -0.0964,0.0269 -0.1681,0.0814 -0.2135,0.163 -0.1236,0.0346 -0.2537,0.0584 -0.3384,0.159 -0.1012,0.0369 -0.1993,0.074 -0.2966,0.1095 l 0.0165,0.0734 c -0.1293,0.0295 -0.256,0.0615 -0.3787,0.0961 -0.0462,0.1071 -0.1542,0.1386 -0.2489,0.1746 -0.0938,0.085 -0.2092,0.1301 -0.3229,0.1715 -0.2627,0.2001 -0.5748,0.3311 -0.8662,0.4841 l 0.007,0.0635 c -0.1046,0.0287 -0.2058,0.0593 -0.3039,0.0896 -0.083,0.1097 -0.2149,0.1417 -0.3367,0.1755 -0.0199,0.1326 -0.1452,0.1326 -0.2464,0.1542 -0.0881,0.0938 -0.2092,0.1375 -0.3245,0.1752 -0.0978,0.0751 -0.1942,0.1491 -0.2897,0.2225 -0.099,0.0419 -0.1937,0.0873 -0.277,0.1491 -0.1704,0.0972 -0.3475,0.1803 -0.5114,0.284 -0.083,0.0947 -0.2092,0.1236 -0.3177,0.1673 -0.0834,0.0773 -0.1871,0.1193 -0.2883,0.1573 l 0.002,0.0584 c -0.1038,0.047 -0.2497,0.0436 -0.2843,0.1754 -0.0544,0.007 -0.1613,0.0207 -0.2157,0.0272 0,0.0312 8e-4,0.0939 8e-4,0.1259 -0.1343,0.0371 -0.3401,-6e-4 -0.3435,0.1871 -0.0502,0.004 -0.1497,0.013 -0.2002,0.0173 -0.1465,0.229 -0.4725,0.2511 -0.6826,0.4102 -0.0289,0.0337 -0.0856,0.0995 -0.1145,0.1326 -0.0445,0.003 -0.1335,0.009 -0.178,0.0122 -0.0346,0.1375 -0.1704,0.1457 -0.2784,0.178 -0.0303,0.0329 -0.0904,0.0987 -0.121,0.1318 -0.0445,0.006 -0.1324,0.0173 -0.176,0.023 -0.1128,0.1794 -0.328,0.2438 -0.5018,0.341 -0.0912,0.0896 -0.2131,0.1293 -0.3285,0.1664 -0.0337,0.121 -0.1607,0.1276 -0.2562,0.1604 -0.1579,0.1534 -0.345,0.2693 -0.5508,0.3427 -0.0683,0.0601 -0.1409,0.112 -0.2166,0.1565 l -0.002,0.0485 c -0.2018,0.0519 -0.3657,0.1811 -0.5403,0.2835 -0.1071,0.0856 -0.2307,0.1366 -0.3617,0.1573 0.002,0.0312 0.005,0.0938 0.006,0.125 -0.0536,0.007 -0.1607,0.0232 -0.2143,0.0306 -0.205,0.2205 -0.4975,0.3623 -0.76,0.5105 -0.1805,0.1352 -0.4218,0.197 -0.5485,0.3912 -0.0536,0.005 -0.1599,0.0147 -0.2134,0.0198 -0.002,0.0329 -0.004,0.0981 -0.005,0.131 -0.14,0.0139 -0.2661,0.0584 -0.3492,0.1738 -0.0652,0.0484 -0.1278,0.0963 -0.1893,0.1448 -0.118,0.0354 -0.2432,0.0587 -0.3221,0.1582 -0.0816,0.0601 -0.1607,0.1193 -0.2372,0.1789 -0.0873,0.0377 -0.1746,0.0765 -0.2554,0.1167 -0.1622,0.1713 -0.3705,0.3039 -0.6086,0.3272 -9e-4,0.032 -0.002,0.0961 -0.003,0.1284 -0.0445,8e-4 -0.1332,0.003 -0.1777,0.004 l 0.003,0.08 c -0.0998,0.0493 -0.2447,0.0578 -0.2744,0.1879 -0.038,6e-4 -0.1129,0.003 -0.1508,0.005 0.003,0.0338 0.008,0.1029 0.0107,0.1367 -0.1176,0.0246 -0.2347,0.051 -0.3466,0.0799 -0.093,0.2231 -0.3805,0.22 -0.5131,0.4076 -0.1162,0.0454 -0.2322,0.0933 -0.3098,0.1911 -0.1021,0.0337 -0.2024,0.0669 -0.2997,0.0981 9e-4,0.0328 0.003,0.0989 0.003,0.1309 -0.0552,0.004 -0.1664,0.0133 -0.2216,0.0173 -0.1738,0.2645 -0.5451,0.3064 -0.737,0.5618 -0.0389,0.0122 -0.1146,0.036 -0.1534,0.0485 -0.1219,0.0816 -0.2446,0.163 -0.3433,0.2693 -0.2191,0.0592 -0.4158,0.1738 -0.5666,0.3419 -0.1063,0.0246 -0.22,0.0402 -0.2373,0.1646 -0.1119,0.0264 -0.2304,0.0454 -0.2619,0.1738 -0.0337,0.003 -0.1029,0.0108 -0.1375,0.0139 0.003,0.0329 0.007,0.0998 0.009,0.1327 -0.1293,0.028 -0.2571,0.0657 -0.3764,0.1111 -0.0749,0.0691 -0.1574,0.1261 -0.2387,0.182 -0.0783,0.1046 -0.207,0.1335 -0.3198,0.1729 -0.0938,0.1474 -0.2378,0.2398 -0.3943,0.3041 l 0.0255,0.0706 c -0.1119,0.0281 -0.2537,0.0165 -0.2891,0.1491 -0.2035,0.0593 -0.3277,0.2594 -0.5476,0.2736 l 0.003,0.064 c -0.1021,0.019 -0.1704,0.076 -0.2033,0.1698 -0.0363,0.002 -0.1097,0.006 -0.1465,0.008 0.004,0.0389 0.0122,0.1171 0.0164,0.1565 -0.0964,0.006 -0.191,0.0133 -0.2834,0.0207 -0.0287,0.0337 -0.0865,0.1021 -0.1146,0.1366 -0.2667,0.1483 -0.4915,0.3705 -0.788,0.4595 -0.0873,0.0907 -0.1704,0.1829 -0.2503,0.2775 -0.0454,0.003 -0.1366,0.0117 -0.182,0.0151 -0.0198,0.121 -0.1326,0.1505 -0.2273,0.1885 -0.0669,0.0816 -0.1624,0.1258 -0.2498,0.172 -0.0518,0.061 -0.1077,0.1154 -0.1695,0.1625 -0.089,0.0501 -0.1729,0.1029 -0.2554,0.1564 -0.1029,0.0715 -0.2041,0.1423 -0.303,0.2158 -0.1366,0.1077 -0.2775,0.2108 -0.4365,0.2806 -0.1647,0.1188 -0.3203,0.2472 -0.476,0.3747 -0.1491,0.0627 -0.2744,0.1599 -0.3937,0.2636 -2.7516,1.8959 -5.4519,3.8659 -8.1476,5.84 -2.4115,1.7552 -4.7841,3.5628 -7.1807,5.3376 -5.148,3.8517 -10.2748,7.7318 -15.4171,11.5926 -1.0559,0.8161 -2.149,1.5863 -3.1947,2.4162 0.0105,0.0596 0.023,0.1205 0.0338,0.1815 l -0.1007,-0.1664 c -4.9028,3.6805 -9.8705,7.2737 -14.8728,10.8158 -5.4017,3.6732 -10.9338,7.1924 -16.829,10.0262 -3.1096,1.4955 -6.3357,2.7731 -9.6826,3.6295 -1.9939,0.4974 -4.0223,0.8869 -6.0772,1.0031 -2.1478,0.131 -4.3129,0.003 -6.4204,-0.4348 -1.719,-0.3492 -3.3843,-0.9357 -4.9703,-1.6767 -2.5614,-1.2676 -4.8393,-3.0744 -6.7419,-5.2001 -0.9536,-1.1325 -1.8768,-2.2904 -2.7958,-3.4507 -4.4113,-5.3705 -9.9029,-9.8195 -15.9792,-13.1765 -3.1813,-1.7252 -6.4593,-3.2738 -9.8226,-4.6094 -2.4798,-0.9735 -4.995,-1.872 -7.5646,-2.577 -0.0328,-0.007 -0.0989,-0.0207 -0.1318,-0.0272 l 0.0199,-0.0783 c -0.2736,-0.0181 -0.5437,-0.0649 -0.8139,-0.1012 l 0.01,-0.085 c -0.2041,-0.0411 -0.4306,-0.0255 -0.6078,-0.1483 -0.2494,-0.0584 -0.504,-0.0813 -0.7577,-0.106 -0.0782,-0.1797 -0.2874,-0.1128 -0.4405,-0.1375 -0.2044,-0.2126 -0.5692,-0.1218 -0.841,-0.1814 l 0.0133,-0.0864 c -0.1738,-0.0247 -0.3484,-0.0468 -0.5239,-0.0542 -0.002,-0.0249 -0.005,-0.0751 -0.006,-0.0998 -0.2009,-0.0379 -0.4901,0.0766 -0.6111,-0.1391 -0.4068,-0.0216 -0.8096,-0.0916 -1.2155,-0.1185 -0.2299,-0.2381 -0.6344,-0.034 -0.8938,-0.2325 -0.2866,-0.0394 -0.5748,-0.0601 -0.8614,-0.0978 -0.3065,-0.1491 -0.6614,-0.1105 -0.9859,-0.1927 0.2866,-0.0601 0.5757,-0.1106 0.8691,-0.1301 l 0.005,-0.0791 c 0.2826,-0.0173 0.5641,-0.0496 0.8467,-0.0652 l -0.0198,-0.089 c 0.4396,0.007 0.8722,-0.0896 1.311,-0.093 v -0.0847 c 0.3353,0.002 0.6647,-0.0669 0.9992,-0.0774 l -0.0142,-0.089 c 0.3864,0.007 0.7677,-0.0718 1.154,-0.08 l 0.004,-0.0839 c 0.36,-0.007 0.7166,-0.07 1.0771,-0.0742 l -0.003,-0.084 c 0.3368,0.0131 0.667,-0.0708 1.0038,-0.0643 l -0.0148,-0.0938 c 0.5091,0.0238 1.0123,-0.0783 1.5205,-0.0766 0.1474,-8e-4 0.2923,-0.0306 0.4354,-0.0618 1.3845,-0.1893 2.7831,-0.2593 4.1749,-0.3738 0.3492,-0.004 0.7098,-0.108 1.0525,8e-4 3.3568,1.1446 6.5942,2.6189 9.7271,4.2761 5.1072,2.7326 9.9941,5.9346 14.275,9.8523 1.7124,1.5514 3.3281,3.2103 4.8362,4.9604 0.9981,1.1307 1.8348,2.3882 2.7811,3.5612 1.9371,2.501 4.2117,4.8523 7.0803,6.2713 2.922,1.3927 6.1949,1.9982 9.4241,1.8581 3.7293,-0.1459 7.3817,-1.0995 10.8686,-2.3884 3.166,-1.1793 6.2254,-2.6314 9.1936,-4.2415 5.5534,-2.9838 10.8638,-6.395 16.0654,-9.9502 2.5324,-1.747 5.0717,-3.4846 7.567,-5.2849 10.3136,-7.329 20.4427,-14.9182 30.8651,-22.0941 1.5474,-1.0746 3.0999,-2.143 4.6754,-3.1748 0.0576,-0.0337 0.1063,-0.0791 0.1466,-0.1352 0.0981,-0.0411 0.1885,-0.1012 0.2659,-0.1786 0.0397,-0.0125 0.1179,-0.0363 0.1573,-0.0479 0.1984,-0.2222 0.4893,-0.3467 0.7396,-0.5063 0.0782,-0.0586 0.1581,-0.1162 0.2429,-0.1723 0.1525,-0.1276 0.3206,-0.2339 0.5017,-0.3195 0.131,-0.102 0.2801,-0.1802 0.4167,-0.2775 0.0372,-0.0125 0.1103,-0.0363 0.1474,-0.0479 0.0972,-0.172 0.2909,-0.2421 0.4184,-0.3861 0.0386,-0.01 0.1168,-0.0306 0.1556,-0.0413 0.118,-0.0888 0.2421,-0.1738 0.3393,-0.2897 0.0454,-0.006 0.1358,-0.0182 0.1812,-0.0239 0.0289,-0.0413 0.0856,-0.1244 0.1136,-0.1664 0.1285,-0.0428 0.309,-0.0428 0.3541,-0.2052 0.0527,-0.007 0.1599,-0.0212 0.2134,-0.0286 -0.002,-0.0346 -0.003,-0.1032 -0.004,-0.1369 0.0513,-0.009 0.1542,-0.0272 0.2061,-0.0363 0.0558,-0.0879 0.1474,-0.1358 0.2378,-0.1868 0.0825,-0.0593 0.1723,-0.1021 0.2696,-0.1434 0.0295,-0.1202 0.1423,-0.1333 0.2486,-0.1574 0.0385,-0.1085 0.1431,-0.1383 0.2437,-0.1746 0.0757,-0.0609 0.154,-0.1219 0.2331,-0.1842 0.079,-0.0601 0.1681,-0.1015 0.2619,-0.1443 0.0544,-0.1145 0.1811,-0.1267 0.2917,-0.1613 0.0255,-0.0371 0.0756,-0.1097 0.1003,-0.1466 0.0544,-0.002 0.1622,-0.005 0.2166,-0.007 -9e-4,-0.036 -0.003,-0.1094 -0.005,-0.1457 0.0558,-0.004 0.1672,-0.0139 0.223,-0.019 0.0125,-0.14 0.1336,-0.1547 0.2481,-0.176 0.0204,-0.1278 0.1358,-0.1392 0.2443,-0.1607 0.0298,-0.1202 0.1624,-0.1262 0.2563,-0.1712 0.1326,-0.2653 0.4966,-0.2101 0.631,-0.4564 0.0533,-0.007 0.1596,-0.0221 0.2123,-0.0295 -9e-4,-0.0331 -0.003,-0.0989 -0.004,-0.1318 0.055,-0.008 0.1647,-0.0232 0.2197,-0.0306 0.1023,-0.1854 0.3229,-0.2412 0.4935,-0.3467 0.0791,-0.0584 0.163,-0.1137 0.2503,-0.1672 0.2931,-0.1341 0.5205,-0.3904 0.8376,-0.4743 0.0338,-0.0941 0.1012,-0.1491 0.2024,-0.1664 l -0.007,-0.0609 c 0.1261,-0.0281 0.2528,-0.0683 0.3625,-0.1457 0.055,-0.0604 0.1111,-0.1205 0.1678,-0.1814 0.0743,-0.0182 0.1525,-0.036 0.2333,-0.0542 0.1661,-0.1845 0.4315,-0.2505 0.5789,-0.4515 0.0569,-0.004 0.1698,-0.0122 0.2256,-0.0165 -0.004,-0.036 -0.0122,-0.1085 -0.0164,-0.1448 0.159,-0.0354 0.3194,-0.074 0.4833,-0.1103 0,-0.0246 8e-4,-0.0751 0.002,-0.0998 0.1771,-0.1672 0.5031,-0.1309 0.6128,-0.3614 0.0454,-0.007 0.1349,-0.019 0.1803,-0.0255 0.0354,-0.178 0.2999,-0.1032 0.3146,-0.299 0.0485,-0.006 0.1457,-0.0173 0.1945,-0.0222 0.009,-0.1723 0.1885,-0.1468 0.3152,-0.1805 0.0652,-0.0757 0.1335,-0.1491 0.2061,-0.2214 0.2001,-0.0578 0.3747,-0.1755 0.5377,-0.3047 0.1185,-0.2291 0.4655,-0.1361 0.5624,-0.3518 0.0964,-0.0289 0.22,-0.0289 0.2529,-0.1508 0.2151,-0.0649 0.4374,-0.1522 0.5839,-0.3325 0.159,-0.0372 0.3107,-0.1055 0.4201,-0.2339 0.0437,-0.007 0.131,-0.0198 0.1746,-0.0272 0.0666,-0.0768 0.144,-0.1468 0.2446,-0.1837 0.1228,-0.1499 0.4085,-0.0808 0.457,-0.2956 0.0578,-0.005 0.1729,-0.0159 0.2307,-0.0207 l -0.0263,-0.0981 c 0.0518,-0.0139 0.1556,-0.042 0.2075,-0.0567 l -0.023,-0.0825 c 0.1324,-0.0212 0.2716,-0.0485 0.3631,-0.1604 0.0938,-0.0338 0.205,-0.0553 0.2563,-0.159 0.2642,-0.0981 0.5386,-0.2092 0.7469,-0.4077 0.051,-0.005 0.1531,-0.0147 0.2049,-0.0198 -8e-4,-0.0329 -0.003,-0.0995 -0.004,-0.1327 0.0533,-0.009 0.1604,-0.0263 0.214,-0.0346 0.1071,-0.0765 0.2222,-0.1448 0.3246,-0.2338 0.1054,-0.0476 0.2676,-0.0354 0.3129,-0.1695 0.121,-0.0363 0.2633,-0.0536 0.3359,-0.1763 0.0544,-0.009 0.1624,-0.0281 0.2166,-0.038 -0.002,-0.0287 -0.006,-0.0873 -0.007,-0.116 0.233,-0.0337 0.4802,-0.1301 0.6242,-0.3279 0.0544,-0.005 0.1641,-0.0148 0.2191,-0.0196 -8e-4,-0.034 -0.003,-0.1015 -0.005,-0.1352 0.284,0.0164 0.4802,-0.1993 0.737,-0.2758 l -0.0139,-0.0743 c 0.1145,-0.0255 0.2305,-0.0536 0.3492,-0.0805 l -0.0215,-0.0808 c 0.1301,-0.0229 0.2662,-0.0527 0.3665,-0.1516 0.1945,-0.1111 0.4127,-0.1851 0.5874,-0.332 0.106,-0.0394 0.2165,-0.0765 0.3302,-0.115 0.074,-0.0899 0.1851,-0.1245 0.2956,-0.1557 l -0.0116,-0.0717 c 0.1128,-0.0263 0.2274,-0.0544 0.345,-0.0816 l -0.008,-0.0709 c 0.1278,-0.032 0.2636,-0.0641 0.3535,-0.1738 0.1136,-0.0345 0.2287,-0.0674 0.3483,-0.1012 0.0338,-0.136 0.1661,-0.1366 0.2832,-0.1581 l -0.0147,-0.0825 c 0.0896,-0.023 0.1811,-0.0451 0.2758,-0.0683 l -0.0125,-0.0749 c 0.1491,-0.032 0.2965,-0.0717 0.4473,-0.1153 0.0527,-0.1194 0.1772,-0.1301 0.2926,-0.1557 l -0.009,-0.079 c 0.1128,-0.0239 0.227,-0.0502 0.345,-0.0749 l -0.0148,-0.0774 c 0.2274,-0.0595 0.4703,-0.1244 0.6282,-0.3146 0.2307,-0.0411 0.4425,-0.1457 0.6383,-0.2753 l -0.0138,-0.0592 c 0.1357,-0.0286 0.2749,-0.0592 0.4149,-0.0896 l -0.007,-0.0742 c 0.2495,-0.0511 0.4621,-0.2002 0.7025,-0.2832 0.0972,-0.0768 0.2148,-0.1245 0.3367,-0.1599 0.2135,-0.1434 0.4589,-0.2282 0.6976,-0.322 l -0.0173,-0.0726 c 0.1262,-0.0354 0.3294,0.019 0.3682,-0.1513 0.144,-0.0355 0.3294,-0.0199 0.415,-0.1724 0.1146,-0.0303 0.2308,-0.0592 0.3501,-0.0896 0.1004,-0.1145 0.2546,-0.1343 0.3954,-0.1797 0.0879,-0.1037 0.2223,-0.1301 0.349,-0.1695 0.1131,-0.0981 0.2545,-0.1417 0.4062,-0.1516 0.1664,-0.205 0.4595,-0.2421 0.699,-0.3221 l -0.013,-0.0748 c 0.1375,-0.0289 0.2775,-0.0584 0.4201,-0.0882 l -0.015,-0.0873 c 0.1391,-0.0255 0.28,-0.0527 0.4243,-0.0782 l -0.0125,-0.0822 c 0.1327,-0.0258 0.2866,-0.0306 0.3773,-0.1542 0.2685,-0.0527 0.5066,-0.1976 0.7716,-0.2702 0.1103,-0.0977 0.2512,-0.1349 0.3946,-0.1712 0.1003,-0.0708 0.2132,-0.1193 0.3319,-0.1615 0.1565,-0.1004 0.3433,-0.1242 0.5261,-0.1497 l -0.006,-0.076 c 0.1253,-0.0286 0.2511,-0.0609 0.3812,-0.0938 0.108,-0.1318 0.2858,-0.1332 0.4422,-0.1672 l -0.0147,-0.0715 c 0.2809,-0.0725 0.5428,-0.2052 0.8286,-0.2693 0.1383,-0.1023 0.3064,-0.136 0.4759,-0.1632 0.1103,-0.0584 0.2364,-0.1055 0.3138,-0.2141 0.1794,-0.0289 0.3617,-0.0592 0.5445,-0.0929 l -0.006,-0.0791 c 0.2973,-0.0247 0.5459,-0.2143 0.8424,-0.252 l -0.0277,-0.0899 c 0.1414,-0.006 0.2823,-0.0139 0.4297,-0.0207 -0.002,-0.0346 -0.005,-0.102 -0.007,-0.1366 0.1698,-0.007 0.3393,-0.0156 0.5139,-0.0216 -0.007,-0.0377 -0.0198,-0.1133 -0.0263,-0.1505 z" style="fill:#fee801;fill-rule:evenodd" id="path34"/>
    <path d="m 406.8139,366.8485 c 0.4652,-0.0289 0.8861,-0.2693 1.3589,-0.2758 -0.007,0.2001 -0.2092,0.2322 -0.3475,0.3095 -0.1417,0.0743 -0.2982,0.108 -0.4507,0.127 0.006,0.0247 0.0181,0.0749 0.0241,0.1004 -0.1196,0.0207 -0.2356,0.0411 -0.3493,0.0609 l 0.005,0.0808 c -0.1194,0.0238 -0.2339,0.0502 -0.3467,0.0757 l 0.0173,0.0734 c -0.1293,0.0346 -0.3186,0.007 -0.3631,0.163 -0.1846,0.0337 -0.3666,0.0692 -0.5468,0.1037 l 0.0204,0.0658 c -0.135,0.0437 -0.262,0.095 -0.3756,0.1732 -0.1029,0.0156 -0.2024,0.0295 -0.2988,0.0437 0.002,0.0303 0.005,0.0912 0.007,0.1224 -0.1704,0.01 -0.3518,0.006 -0.4555,0.1599 -0.1423,0.0346 -0.2832,0.0675 -0.4207,0.1012 -0.061,0.1491 -0.2225,0.1295 -0.3484,0.1508 -0.0782,0.1647 -0.2917,0.1318 -0.4365,0.1721 l 0.0238,0.0858 c -0.1228,0.0239 -0.2412,0.0477 -0.3583,0.0698 l 0.0133,0.085 c -0.1845,0.0437 -0.3691,0.0774 -0.5544,0.0791 0.0669,0.0255 0.1369,0.0502 0.2083,0.0757 -0.1276,0.0394 -0.3243,-0.008 -0.3498,0.163 -0.2999,0.028 -0.5454,0.2191 -0.8368,0.2761 -0.0864,0.1085 -0.2273,0.1168 -0.3484,0.1448 -0.0759,0.1457 -0.2627,0.135 -0.3945,0.1812 -0.0559,0.159 -0.2464,0.1153 -0.3739,0.1499 l 0.0156,0.0791 c -0.1137,0.0295 -0.2586,0.0156 -0.298,0.1483 -0.1386,0.0493 -0.3682,-0.004 -0.3889,0.1876 -0.1102,0.005 -0.2174,0.0108 -0.322,0.0156 0.003,0.0337 0.007,0.1006 0.009,0.1344 -0.3368,-0.0207 -0.5905,0.2256 -0.9099,0.2636 l 0.0172,0.0904 c -0.1218,0.0207 -0.2429,0.0414 -0.3591,0.0618 l 0.0264,0.0839 c -0.1185,0.0233 -0.2373,0.0488 -0.3501,0.0734 l 0.0142,0.089 c -0.1361,0.0329 -0.3206,-0.002 -0.3691,0.1605 -0.1443,0.0436 -0.3804,-0.0196 -0.3954,0.1837 -0.0601,0 -0.1812,8e-4 -0.2421,0.002 0.002,0.0362 0.008,0.1097 0.0107,0.1457 -0.1417,0.009 -0.2848,0.019 -0.4209,0.0297 0.003,0.0346 0.0108,0.1055 0.0142,0.1409 -0.0669,0.002 -0.1993,0.006 -0.2662,0.007 0.003,0.0363 0.008,0.108 0.0116,0.1431 -0.1746,0.0346 -0.43,-0.0303 -0.5196,0.1599 -0.1335,0.0329 -0.2627,0.066 -0.3912,0.0989 l 0.0205,0.0848 c -0.1319,0.0272 -0.262,0.0584 -0.3861,0.093 -0.0865,0.1278 -0.2347,0.1434 -0.3716,0.1533 0,0.0221 8e-4,0.0683 0.002,0.0904 -0.1327,0.0307 -0.3031,0.002 -0.3575,0.1557 -0.1046,0.0272 -0.21,0.0518 -0.3087,0.0768 l 0.0139,0.0913 c -0.1012,0.009 -0.2001,0.0181 -0.2956,0.0289 -0.0584,0.2364 -0.3986,0.0986 -0.4768,0.3104 -0.0462,8e-4 -0.1384,0.003 -0.1846,0.004 -0.0263,0.0386 -0.0791,0.1151 -0.1054,0.1531 -0.1171,0.0125 -0.2305,0.0246 -0.3419,0.0371 0,0.0304 -8e-4,0.0921 -10e-4,0.1228 -0.0626,0.004 -0.1888,0.0113 -0.2523,0.0156 9e-4,0.0345 0.003,0.102 0.003,0.1357 -0.1729,0.0165 -0.3418,0.0454 -0.5057,0.0856 l 0.0182,0.0825 c -0.2503,0.07 -0.4933,0.1698 -0.6985,0.3277 -0.1185,0.0462 -0.2676,0.051 -0.3268,0.1797 -0.0545,0.007 -0.1639,0.0204 -0.2191,0.0281 0.003,0.032 0.008,0.0955 0.0107,0.1275 -0.159,0.0295 -0.392,-0.0362 -0.4481,0.163 -0.1415,0.0346 -0.2815,0.0701 -0.4176,0.1063 -0.07,0.1253 -0.2106,0.1432 -0.3333,0.163 -0.2118,0.1738 -0.468,0.2792 -0.7282,0.3484 -0.061,0.0757 -0.1375,0.1228 -0.2297,0.1426 l 0.0196,0.0658 c -0.2798,0.0428 -0.504,0.2412 -0.7863,0.2726 -0.0562,0.1582 -0.2347,0.1375 -0.3648,0.1673 8e-4,0.0286 0.003,0.0873 0.004,0.1159 -0.0584,0.009 -0.1746,0.0281 -0.233,0.0372 -0.1029,0.1145 -0.248,0.1525 -0.392,0.1698 -0.0394,0.1391 -0.1928,0.1233 -0.2982,0.1573 l 0.0164,0.0796 c -0.1159,0.0289 -0.2296,0.0587 -0.3401,0.0882 l 0.0116,0.076 c -0.1162,0.0255 -0.271,0.004 -0.2849,0.1579 -0.1219,0.028 -0.239,0.0569 -0.354,0.0881 -0.0769,0.1556 -0.2637,0.14 -0.4045,0.178 -0.0412,0.1514 -0.2019,0.1415 -0.3221,0.1738 -0.0402,0.1145 -0.1547,0.1301 -0.2528,0.1548 -0.0658,0.1383 -0.2183,0.1352 -0.3441,0.159 -0.0363,0.121 -0.1633,0.1349 -0.2605,0.1763 -0.1129,0.0584 -0.2297,0.1103 -0.3433,0.1587 l 0.0125,0.0766 c -0.0661,0.005 -0.1979,0.0167 -0.2628,0.0215 8e-4,0.0312 0.002,0.0921 0.002,0.1228 -0.1349,0.0272 -0.3021,0.0138 -0.3639,0.163 -0.1259,0.0314 -0.2577,0.0569 -0.3294,0.172 -0.0567,0.006 -0.169,0.0173 -0.2248,0.0233 0.006,0.0368 0.0173,0.1111 0.023,0.1491 -0.1432,0.0104 -0.2858,0.0221 -0.4224,0.0337 9e-4,0.0286 0.003,0.0864 0.003,0.1151 -0.1366,0.0215 -0.2642,0.0643 -0.3631,0.1599 -0.1003,0.0379 -0.214,0.0575 -0.2503,0.1697 -0.1244,0.0329 -0.2718,0.0273 -0.3328,0.1579 -0.1176,0.0471 -0.2455,0.0726 -0.3251,0.1738 -0.1213,0.0363 -0.2489,0.0604 -0.328,0.1641 -0.112,0.0428 -0.2222,0.0873 -0.3155,0.1596 -0.1933,0.1128 -0.3852,0.2356 -0.6052,0.2866 -0.028,0.1417 -0.1746,0.1236 -0.2817,0.1474 l 0.01,0.0686 c -0.2191,0.0839 -0.4241,0.1959 -0.6225,0.3152 -0.0899,0.0505 -0.1888,0.0882 -0.2472,0.1729 -0.214,0.0734 -0.4388,0.1573 -0.5757,0.347 -0.0987,0.007 -0.1936,0.0139 -0.2857,0.0204 0.002,0.0363 0.006,0.1097 0.008,0.146 -0.1349,0.0329 -0.3113,0.0122 -0.3714,0.1647 -0.1046,0.0303 -0.2052,0.0592 -0.3038,0.0878 l 0.0107,0.0661 c -0.108,0.0385 -0.2208,0.07 -0.2891,0.1655 -0.0916,0.0338 -0.1797,0.0658 -0.2636,0.1012 -0.2775,0.197 -0.5783,0.3731 -0.8921,0.5066 -0.064,0.066 -0.1358,0.1193 -0.2148,0.1607 l 0.003,0.0576 c -0.127,0.0354 -0.3189,-0.003 -0.3402,0.1663 -0.1962,0.0536 -0.3617,0.1721 -0.5363,0.2659 -0.1142,0.0627 -0.2222,0.1335 -0.3161,0.2192 -0.1162,0.0354 -0.229,0.07 -0.3393,0.1054 -0.0371,0.1103 -0.1392,0.1457 -0.2355,0.1763 -0.0908,0.0913 -0.2101,0.1392 -0.3303,0.163 -0.0527,0.0627 -0.1088,0.1202 -0.1689,0.1729 -0.0995,0.0717 -0.2149,0.1145 -0.326,0.1534 -0.0644,0.0896 -0.1624,0.1275 -0.2588,0.1604 -0.0576,0.131 -0.2101,0.1262 -0.322,0.1664 -0.0528,0.08 -0.1259,0.1352 -0.2183,0.1639 l 0.0173,0.0569 c -0.1046,0.0321 -0.2058,0.0658 -0.3047,0.0978 -0.1052,0.0751 -0.2092,0.1508 -0.3087,0.2291 -0.1582,0.0708 -0.3081,0.1573 -0.4646,0.2256 0,0.0247 -0.002,0.0743 -0.002,0.0981 -0.2469,0.01 -0.396,0.2092 -0.6109,0.2891 -0.1261,0.1704 -0.3452,0.2248 -0.4983,0.3631 -0.0882,0.0502 -0.2018,0.0726 -0.2429,0.1747 -0.1038,0.0263 -0.2149,0.0394 -0.243,0.1556 -0.2248,0.0518 -0.4093,0.1837 -0.5709,0.3401 -0.2041,0.0462 -0.354,0.1885 -0.5023,0.3237 -0.1003,0.0321 -0.2041,0.0593 -0.2477,0.1647 -0.1188,0.0363 -0.2398,0.0718 -0.3198,0.1687 -0.0904,0.0479 -0.1777,0.0955 -0.2585,0.1517 -0.0839,0.0569 -0.1664,0.1119 -0.2455,0.1689 -0.0898,0.0502 -0.1992,0.0782 -0.2454,0.1769 -0.1055,0.0241 -0.2124,0.0414 -0.2379,0.159 -0.1006,0.0371 -0.2092,0.0627 -0.252,0.1704 -0.1196,0.0363 -0.2398,0.0734 -0.3197,0.1715 -0.0666,0.0328 -0.1301,0.0666 -0.1911,0.0995 -0.0791,0.0677 -0.163,0.1244 -0.2503,0.1737 -0.1054,0.0669 -0.2049,0.1401 -0.299,0.2183 -0.0675,0.0346 -0.1324,0.07 -0.1951,0.1063 -0.0972,0.0748 -0.206,0.1318 -0.3189,0.1698 -0.0977,0.1094 -0.2179,0.1942 -0.3367,0.2758 -0.0403,0.01 -0.1219,0.0295 -0.1622,0.0394 -0.0289,0.1227 -0.1457,0.1434 -0.2437,0.1746 -0.1063,0.1508 -0.2784,0.2291 -0.4227,0.3336 -0.1292,0.0939 -0.3121,0.1259 -0.3812,0.2827 -0.0372,0.003 -0.1112,0.009 -0.1474,0.0113 l 0.0124,0.0899 c -0.0774,0.0294 -0.1533,0.0584 -0.2256,0.0881 -0.0981,0.0822 -0.1953,0.1664 -0.3008,0.2347 -0.0873,0.0519 -0.1703,0.1086 -0.2486,0.1687 -0.0635,0.0346 -0.1252,0.0692 -0.1845,0.1054 -0.0799,0.0618 -0.163,0.1171 -0.2455,0.1707 -0.1029,0.0731 -0.2041,0.1474 -0.3104,0.2106 -0.0683,0.0445 -0.1284,0.0972 -0.1805,0.1573 -0.1752,0.0907 -0.3739,0.1647 -0.4842,0.3371 -0.0955,0.0419 -0.1876,0.0873 -0.2469,0.1737 -0.0972,0.0338 -0.2092,0.0476 -0.2265,0.1647 -0.104,0.0264 -0.2035,0.061 -0.271,0.1457 -0.0609,0.0536 -0.1187,0.1094 -0.1723,0.169 -0.1077,0.0272 -0.2157,0.0541 -0.2387,0.1794 -0.0462,0.009 -0.1375,0.0272 -0.1837,0.0363 -0.0312,0.1085 -0.1318,0.1457 -0.2239,0.1811 -0.1219,0.0791 -0.2537,0.1556 -0.3263,0.2849 -0.0385,0 -0.1168,0 -0.1556,0 0.003,0.0371 0.01,0.1114 0.0133,0.1491 -0.136,0.0337 -0.322,0.003 -0.36,0.1772 -0.0363,0.005 -0.108,0.0147 -0.1443,0.0204 0.005,0.0363 0.0151,0.1097 0.0199,0.146 -0.0658,0.004 -0.1959,0.0113 -0.2611,0.0147 0.003,0.038 0.009,0.1137 0.0125,0.1516 -0.0644,0.002 -0.1928,0.009 -0.2571,0.0122 8e-4,0.0372 0.002,0.112 0.002,0.1491 -0.051,0.007 -0.1539,0.019 -0.2049,0.0256 -0.0536,0.0674 -0.1055,0.1352 -0.1551,0.2026 -0.0419,0.007 -0.1267,0.023 -0.1686,0.0304 -0.1146,0.1442 -0.2784,0.2307 -0.4244,0.3353 -0.093,0.1094 -0.2321,0.1375 -0.3631,0.1582 0.002,0.0295 0.005,0.0881 0.007,0.1168 -0.3861,0.1754 -0.6851,0.4966 -1.0499,0.71 -0.0831,0.0701 -0.169,0.1384 -0.2191,0.2356 -0.055,0.005 -0.1647,0.0156 -0.2197,0.0213 0.001,0.032 0.006,0.0972 0.007,0.1292 -0.1136,0.0255 -0.2511,0.0247 -0.28,0.1624 -0.0973,0.0363 -0.1953,0.0709 -0.2495,0.163 -0.0833,0.0562 -0.165,0.1112 -0.2432,0.169 -0.0782,0.0567 -0.1531,0.1159 -0.2287,0.1712 -4.9581,3.5322 -9.8689,7.132 -14.7255,10.8037 -5.5074,4.1573 -10.989,8.3477 -16.5126,12.4821 -2.3482,1.773 -4.7282,3.5016 -7.0943,5.2492 -2.5047,1.8187 -5.0108,3.6371 -7.5719,5.3756 -2.6694,1.8175 -5.3467,3.6244 -8.0991,5.3152 -4.3492,2.7122 -8.8864,5.131 -13.5981,7.1544 -2.973,1.2115 -6.0168,2.2822 -9.1622,2.9491 -1.9873,0.4218 -4.0059,0.6903 -6.0335,0.8 -2.0894,0.1029 -4.1944,0.0649 -6.2615,-0.2761 -3.2079,-0.4794 -6.3365,-1.5078 -9.1853,-3.062 -2.7236,-1.489 -5.1821,-3.4483 -7.297,-5.7155 -0.8294,-0.8804 -1.5607,-1.8439 -2.334,-2.7714 -0.6999,-0.8377 -1.321,-1.7411 -2.0753,-2.5325 -1.1449,-1.2954 -2.3479,-2.5432 -3.6533,-3.678 -1.5797,-1.457 -3.2697,-2.7935 -5.0346,-4.0192 -4.8401,-3.3131 -10.18,-5.8595 -15.7238,-7.7556 -0.4702,-0.1349 -0.9224,-0.3393 -1.4091,-0.4085 -0.1423,-0.1267 -0.335,-0.1284 -0.5139,-0.1414 9e-4,-0.0224 0.003,-0.0686 0.003,-0.0907 -0.1803,-0.0289 -0.36,-0.0553 -0.5394,-0.0831 -0.019,-0.0241 -0.0576,-0.0717 -0.0766,-0.0955 -0.3656,-0.0924 -0.7214,-0.2324 -1.1035,-0.2407 -8e-4,-0.0294 -0.003,-0.0895 -0.004,-0.1193 -0.1721,-0.008 -0.3427,-0.0156 -0.514,-0.0207 0.003,-0.0264 0.008,-0.0791 0.0117,-0.1054 -0.1435,-0.0196 -0.2852,-0.0369 -0.4284,-0.0533 l 0.0139,-0.0873 c -0.2213,-0.0264 -0.4413,-0.0618 -0.6621,-0.0924 l 0.0133,-0.0865 c -0.2248,-0.0272 -0.4496,-0.0544 -0.6747,-0.0717 l 0.0142,-0.0887 c -0.197,-0.029 -0.3929,-0.0587 -0.5899,-0.0817 l 0.019,-0.0864 c -0.2732,-0.0428 -0.5476,-0.0757 -0.8234,-0.089 0,-0.0304 -0.002,-0.0908 -0.002,-0.1211 -0.1681,-0.0125 -0.3343,-0.0246 -0.5015,-0.0354 l 0.0108,-0.0865 c -0.1624,-0.0255 -0.3561,-8e-4 -0.4754,-0.1358 -0.2849,-0.0379 -0.5692,-0.079 -0.8541,-0.1122 l 0.0151,-0.0814 c -0.1897,-0.0215 -0.3782,-0.0445 -0.5653,-0.0773 -0.2676,-0.22 -0.6925,-0.0355 -0.9493,-0.2554 -0.1854,-0.042 -0.3756,-0.0601 -0.5652,-0.0701 l 0.009,-0.0856 c -0.2469,-0.0272 -0.494,-0.0618 -0.7409,-0.089 l 0.007,-0.0808 c -0.1928,-0.0139 -0.3838,-0.032 -0.574,-0.0615 -0.294,-0.2117 -0.7265,-0.0445 -1.0287,-0.2537 -0.2413,-0.0388 -0.4842,-0.0677 -0.728,-0.0842 l 0.0114,-0.0839 c -0.3597,-8e-4 -0.7115,-0.0881 -1.0707,-0.0898 l 0.0199,-0.0865 c -0.2563,-0.0419 -0.5148,-0.0709 -0.775,-0.0658 0.002,-0.0238 0.008,-0.0725 0.0108,-0.0972 -0.2776,-0.019 -0.5537,-0.0544 -0.832,-0.0708 l 0.0116,-0.0848 c -0.4127,-0.01 -0.8203,-0.0882 -1.2336,-0.0907 l 0.019,-0.0896 c -0.2637,-0.0215 -0.5463,-0.004 -0.785,-0.1369 -0.2999,-0.0255 -0.5981,-0.0626 -0.8977,-0.0782 l -0.007,-0.0805 c -0.5198,0 -1.032,-0.1072 -1.5508,-0.1024 l 0.0139,-0.0946 c -0.4453,0.002 -0.8853,-0.1029 -1.3317,-0.0701 0.004,-0.0255 0.0133,-0.0748 0.0173,-0.0995 -0.4439,-0.0141 -0.8844,-0.0799 -1.3292,-0.0686 l 0.0133,-0.0969 c -0.4184,0.0105 -0.8311,-0.0825 -1.2503,-0.0587 l -0.003,-0.0839 c -0.4907,0.004 -0.9765,-0.0864 -1.4675,-0.0683 -0.002,-0.0255 -0.006,-0.0765 -0.007,-0.102 -0.8567,0.0345 -1.7074,-0.1129 -2.564,-0.0743 l 0.007,-0.1004 c -0.756,0.0182 -1.5097,-0.0717 -2.2666,-0.0578 -0.163,-0.0105 -0.3483,0.0264 -0.4875,-0.0839 -0.6061,-0.008 -1.2132,-0.0306 -1.8193,-0.023 -0.1111,-0.015 -0.2801,0.0329 -0.326,-0.1088 0.0576,-0.1573 0.2412,-0.1038 0.3714,-0.1301 l -0.0125,-0.0734 c 0.3197,-0.0443 0.5989,-0.2271 0.9224,-0.2503 l -0.008,-0.0808 c 0.1434,-0.0213 0.2857,-0.0451 0.4291,-0.0675 l -0.013,-0.0864 c 0.1703,-0.0239 0.3407,-0.0536 0.5105,-0.0831 l -0.01,-0.0808 c 0.3566,0.002 0.6483,-0.2381 1.0015,-0.2545 l -0.0238,-0.0873 c 0.1414,-0.0105 0.2823,-0.023 0.4232,-0.0329 -9e-4,-0.0304 -0.003,-0.0907 -0.005,-0.1202 0.1985,-0.0108 0.3952,-0.0388 0.5897,-0.0808 l -0.0125,-0.0822 c 0.2199,-0.0306 0.4382,-0.0692 0.6582,-0.0981 l -0.0116,-0.093 c 0.1417,-0.0158 0.284,-0.034 0.4266,-0.0487 0,-0.0238 -9e-4,-0.0709 -9e-4,-0.0938 0.1953,-0.0247 0.3895,-0.0553 0.5848,-0.0834 l -0.0173,-0.0864 c 0.1582,-0.0196 0.3169,-0.0428 0.472,-0.0839 0.246,-0.1517 0.5508,-0.1409 0.8286,-0.1854 l -0.005,-0.0658 c 0.1071,-0.006 0.1853,-0.0553 0.2347,-0.1443 0.3276,-0.0229 0.6497,-0.0887 0.9768,-0.125 0.0649,-0.1352 0.2256,-0.1137 0.3492,-0.1474 0.2429,-0.1383 0.5335,-0.1236 0.7988,-0.1845 0.1704,-0.1673 0.4224,-0.1202 0.6392,-0.1375 l -0.019,-0.093 c 0.1738,-0.0181 0.3476,-0.0388 0.5222,-0.0578 l -0.0125,-0.0831 c 0.2645,-0.0263 0.5281,-0.0635 0.7906,-0.1014 0.1993,-0.1843 0.5148,-0.1129 0.7651,-0.1679 l -0.007,-0.0824 c 0.2234,-0.0494 0.4984,0.0107 0.6764,-0.1582 0.2724,-0.0717 0.5944,-0.007 0.8356,-0.1695 0.1599,-0.0281 0.3215,-0.0471 0.4836,-0.0601 -0.004,-0.0241 -0.0116,-0.0717 -0.0156,-0.0955 0.2586,-0.007 0.5148,-0.0397 0.7708,-0.0743 l -0.023,-0.0839 c 0.2157,-0.006 0.434,-0.0148 0.6423,-0.0783 0.0757,-0.0963 0.2044,-0.0751 0.3104,-0.0915 0.2761,-0.023 0.5494,-0.0692 0.8255,-0.0921 0.1916,-0.2373 0.5253,-0.0675 0.7855,-0.0925 l 0.003,0.0851 c 0.405,0.013 0.8044,0.1003 1.2115,0.1069 -8e-4,0.024 -0.002,0.0734 -0.003,0.098 0.224,0.0272 0.4496,0.0471 0.6753,0.0553 l -0.009,0.0873 c 0.2001,0.0182 0.4002,0.0428 0.6012,0.0658 l -0.0187,0.0842 c 0.2775,0.0139 0.5533,0.0518 0.83,0.0864 l -0.013,0.0896 c 0.2001,0.004 0.3994,0.0116 0.5995,0.0207 -9e-4,0.0303 -0.002,0.0899 -0.002,0.1202 0.3518,0.032 0.7007,0.0947 1.055,0.108 l -0.0124,0.0864 c 0.2446,0.0403 0.4901,0.0749 0.7373,0.093 5e-4,0.023 5e-4,0.07 5e-4,0.093 0.1205,0.0142 0.2415,0.0264 0.3626,0.0388 l -0.0116,0.0848 c 0.3013,0.0232 0.5995,0.0717 0.9002,0.1029 l -0.0181,0.0873 c 0.1993,0.0224 0.3977,0.0487 0.597,0.0709 l -0.0131,0.0881 c 0.2478,0.0354 0.4967,0.0683 0.747,0.0882 -0.003,0.0306 -0.007,0.0929 -0.009,0.1244 0.2222,0.0122 0.4447,0.0247 0.6678,0.0346 -0.002,0.0329 -0.005,0.0986 -0.006,0.1327 0.169,0.008 0.3385,0.0178 0.5083,0.026 l -0.0216,0.0998 c 0.0692,9e-4 0.2084,0.003 0.2775,0.003 -8e-4,0.032 -0.002,0.0946 -0.002,0.1258 0.3271,0.009 0.6449,0.0924 0.9703,0.1145 l -0.0133,0.0925 c 0.1723,0.0311 0.3469,0.051 0.5221,0.0609 l -0.0187,0.0896 c 0.1933,0.0306 0.3878,0.0609 0.5831,0.0856 l -0.0165,0.0898 c 0.1211,0.0173 0.2413,0.0363 0.3623,0.0553 l -0.008,0.0805 c 0.2602,0.0315 0.5187,0.0743 0.7789,0.1089 0.0709,0.2248 0.3552,0.1193 0.533,0.1581 -0.003,0.0329 -0.007,0.0981 -0.01,0.131 0.1426,0.006 0.2866,0.0139 0.4309,0.0196 -0.004,0.0263 -0.0133,0.0799 -0.0173,0.1063 0.1942,0.0255 0.3895,0.051 0.5848,0.0734 -0.002,0.0295 -0.006,0.089 -0.008,0.1185 0.1664,0.0133 0.3345,0.028 0.5026,0.0411 -0.002,0.0289 -0.003,0.0873 -0.005,0.117 0.1491,0.0199 0.2982,0.0437 0.4465,0.0735 0.2165,0.1349 0.4654,0.2009 0.7067,0.2783 5.9873,2.0662 11.8502,4.6341 17.1079,8.1987 4.0379,2.7317 7.7624,5.9558 10.9057,9.6893 0.9389,1.0517 1.7388,2.2153 2.6059,3.324 0.9454,1.1865 1.8729,2.3972 2.973,3.4474 2.2972,2.2006 5.0148,3.9663 7.9707,5.1455 3.0569,1.1894 6.3496,1.7617 9.629,1.686 3.8974,-0.0255 7.7434,-0.8682 11.4429,-2.0466 3.3395,-1.0584 6.535,-2.5135 9.6645,-4.0768 2.9387,-1.4765 5.7948,-3.1113 8.6139,-4.8055 5.1415,-3.1048 10.1143,-6.4789 15.0228,-9.9389 2.6016,-1.8465 5.2231,-3.6657 7.7918,-5.5581 10.3646,-7.4824 20.53,-15.2462 31.1344,-22.3906 0.064,-0.0485 0.1309,-0.0987 0.195,-0.1522 0.0306,-0.0281 0.0924,-0.0851 0.1236,-0.1129 0.1063,-0.028 0.239,-0.0354 0.2594,-0.1732 0.0354,-0.004 0.1063,-0.0113 0.1417,-0.0155 -9e-4,-0.0346 -0.003,-0.1038 -0.003,-0.1384 0.1318,-0.0337 0.3229,-0.005 0.3509,-0.1868 0.038,-8e-4 0.1145,-0.002 0.1531,-0.003 -0.003,-0.0346 -0.0105,-0.1029 -0.0139,-0.1375 0.1349,-0.0314 0.2735,-0.0643 0.4136,-0.0963 l -0.0108,-0.0757 c 0.163,-0.0907 0.345,-0.1746 0.4521,-0.3371 0.0545,-0.007 0.163,-0.0212 0.2175,-0.0277 -0.002,-0.0363 -0.005,-0.1089 -0.006,-0.1443 0.0462,-0.003 0.1386,-0.009 0.1854,-0.0122 -0.005,-0.0315 -0.0131,-0.0941 -0.0173,-0.1262 0.1278,-0.0272 0.2571,-0.0635 0.3847,-0.1063 0.0921,-0.0847 0.1885,-0.1655 0.2865,-0.2463 0.099,-0.0346 0.2002,-0.0706 0.3039,-0.1043 -8e-4,-0.0323 -0.002,-0.095 -0.003,-0.1261 0.0624,-0.006 0.1885,-0.0173 0.252,-0.023 -0.003,-0.0298 -0.006,-0.0899 -0.008,-0.1196 0.1579,-0.0255 0.2866,-0.1219 0.409,-0.2214 0.1888,-0.1179 0.379,-0.2356 0.5618,-0.3657 0.0808,-0.0496 0.1854,-0.0774 0.2339,-0.172 0.1698,-0.0973 0.373,-0.1789 0.4836,-0.3501 0.1111,-0.008 0.2378,-0.009 0.2469,-0.1565 0.0972,-0.0298 0.197,-0.0584 0.2999,-0.0856 0.0692,-0.0816 0.1383,-0.1647 0.2049,-0.2506 0.0553,-0.005 0.1656,-0.0139 0.2209,-0.0181 -0.002,-0.036 -0.004,-0.1086 -0.005,-0.1449 0.0544,-0.002 0.1624,-0.006 0.2165,-0.007 0.0281,-0.0354 0.0851,-0.1071 0.1131,-0.1434 0.2033,-0.0683 0.3648,-0.2222 0.574,-0.2806 l -0.0124,-0.0834 c 0.0453,-0.002 0.1366,-0.005 0.1819,-0.007 0,-0.0346 9e-4,-0.1029 0.002,-0.1375 0.061,-0.006 0.1846,-0.0155 0.2455,-0.0215 -0.002,-0.0337 -0.005,-0.1012 -0.007,-0.1341 0.1218,-0.0405 0.3251,0.005 0.3441,-0.1698 0.1063,-0.0221 0.2157,-0.0558 0.2659,-0.1672 0.0964,-0.032 0.1987,-0.0624 0.3016,-0.0921 l -0.009,-0.0658 c 0.1417,-0.1196 0.3665,-0.15 0.4513,-0.3288 0.1185,-0.0312 0.2891,-0.006 0.3203,-0.1647 0.2891,-0.1236 0.5528,-0.307 0.8368,-0.447 0.0825,-0.1228 0.2183,-0.1517 0.3608,-0.1574 0,-0.0331 0,-0.0972 9e-4,-0.1292 0.0442,-0.003 0.1332,-0.008 0.1777,-0.0108 l -0.007,-0.076 c 0.0938,-0.0442 0.1868,-0.0969 0.2758,-0.1579 0.178,-0.1037 0.3526,-0.2199 0.551,-0.2865 l -0.009,-0.0834 c 0.0463,9e-4 0.1392,0.002 0.1863,0.002 -0.003,-0.0371 -0.0108,-0.1111 -0.0142,-0.1482 0.0661,-0.003 0.197,-0.007 0.2628,-0.01 -0.002,-0.0355 -0.005,-0.1072 -0.006,-0.1432 0.1318,-0.0323 0.3466,0.0247 0.3557,-0.1706 0.0567,-0.005 0.1704,-0.0148 0.2273,-0.0199 -8e-4,-0.0337 -0.004,-0.1012 -0.005,-0.1341 0.1253,-0.0328 0.3138,0.006 0.351,-0.1615 0.3863,-0.1911 0.7625,-0.4026 1.1423,-0.6078 l -0.0232,-0.0632 c 0.1145,-0.0198 0.2636,-0.0116 0.2761,-0.1681 0.125,-0.0346 0.3229,0 0.3195,-0.1862 0.0402,0.004 0.1218,0.0107 0.1629,0.015 -0.002,-0.0363 -0.005,-0.1089 -0.006,-0.1443 0.1352,-0.032 0.2727,-0.0666 0.4127,-0.0995 l -0.01,-0.0717 c 0.1474,-0.1106 0.3558,-0.1573 0.4513,-0.328 0.1128,-0.0377 0.2874,-0.01 0.3155,-0.1655 0.284,-0.1128 0.5343,-0.3005 0.8144,-0.4289 l -0.0147,-0.0842 c 0.0453,-10e-4 0.1366,-0.004 0.1819,-0.006 -0.002,-0.0337 -0.008,-0.1011 -0.0107,-0.1349 0.1318,-0.0297 0.3336,0.0148 0.3557,-0.1723 0.1202,-0.0287 0.29,-0.005 0.3303,-0.1613 0.1162,-0.0315 0.2315,-0.0774 0.3279,-0.1565 0.0913,-0.0436 0.1942,-0.0791 0.2585,-0.1689 0.0831,-0.0355 0.1673,-0.0692 0.2563,-0.1038 0.1621,-0.1686 0.4405,-0.191 0.559,-0.4034 0.0561,-0.005 0.1672,-0.0133 0.2225,-0.0172 -0.002,-0.0372 -0.006,-0.1106 -0.007,-0.1477 0.0649,-0.003 0.1942,-0.0105 0.2586,-0.0148 -0.003,-0.0354 -0.007,-0.1063 -0.009,-0.1417 0.1499,-0.0377 0.4059,0.0414 0.424,-0.1769 0.1063,-0.0164 0.2356,-0.0108 0.2676,-0.1482 0.1409,-0.0329 0.2943,-0.0579 0.402,-0.169 0.1672,-0.1037 0.3427,-0.1984 0.5312,-0.2642 0.0496,-0.1451 0.2248,-0.1128 0.3458,-0.1559 0,-0.0187 -10e-4,-0.0567 -0.002,-0.0757 0.0995,-0.0428 0.2313,-0.0518 0.2905,-0.163 0.0964,-0.032 0.1911,-0.0617 0.2942,-0.0907 l -0.004,-0.0748 c 0.0989,-0.0363 0.2562,-0.0215 0.2758,-0.1672 0.1261,-0.0321 0.2554,-0.0635 0.3872,-0.0913 l -0.0156,-0.089 c 0.1367,-0.0355 0.2741,-0.0683 0.4159,-0.0964 -9e-4,-0.0298 -0.003,-0.0899 -0.005,-0.1202 0.0963,-0.0116 0.1953,-0.0241 0.2982,-0.0371 0.0314,-0.1029 0.1029,-0.1565 0.2165,-0.159 l -0.0204,-0.0723 c 0.1177,-0.0255 0.237,-0.0513 0.3597,-0.0769 l -0.0286,-0.0796 c 0.1366,-0.0125 0.2611,-0.0692 0.3589,-0.1698 0.0587,-0.009 0.1754,-0.0289 0.2341,-0.038 -8e-4,-0.0312 -0.003,-0.0921 -0.004,-0.1227 0.1292,-0.0312 0.3393,0.0232 0.354,-0.1653 0.1154,-0.0363 0.3016,0.006 0.3427,-0.1542 0.1194,-0.0329 0.2809,-0.0204 0.3311,-0.1678 0.1185,-0.0354 0.3005,-0.005 0.3195,-0.1732 0.0981,-0.013 0.1993,-0.0264 0.3039,-0.0377 -9e-4,-0.0315 -0.002,-0.0924 -0.003,-0.1227 0.1228,-0.042 0.3342,0.0107 0.3524,-0.169 0.1516,-0.0139 0.3146,-0.0272 0.4201,-0.1582 0.0972,-0.0311 0.214,-0.0476 0.2545,-0.1646 0.1491,-0.0363 0.3031,-0.0709 0.4587,-0.1004 l -0.0173,-0.0791 c 0.1244,-0.0312 0.248,-0.0652 0.3773,-0.0989 0.0657,-0.1449 0.2313,-0.1358 0.3665,-0.167 l -0.009,-0.0578 c 0.1936,-0.131 0.4093,-0.2132 0.6392,-0.2619 0.0626,-0.131 0.2217,-0.1185 0.3402,-0.1664 0.2247,-0.1582 0.5195,-0.2033 0.7248,-0.3878 0.1068,-0.0544 0.2979,-0.0207 0.3243,-0.1789 0.098,-0.009 0.1995,-0.0173 0.3047,-0.0255 -0.002,-0.0337 -0.008,-0.1012 -0.0114,-0.1358 0.1112,-0.008 0.2248,-0.0172 0.3411,-0.0255 -0.002,-0.0337 -0.005,-0.1006 -0.008,-0.1343 0.1386,-0.0114 0.2744,-0.0247 0.4175,-0.0369 -0.003,-0.0346 -0.01,-0.1032 -0.013,-0.1377 0.112,-0.006 0.2273,-0.0105 0.345,-0.0156 -10e-4,-0.0338 -0.005,-0.1004 -0.006,-0.1333 0.3271,-0.002 0.5969,-0.178 0.8943,-0.2761 l -0.006,-0.0674 c 0.2421,-0.0808 0.5165,-0.1375 0.7084,-0.3203 0.1128,-0.0411 0.275,-0.0207 0.3368,-0.1548 0.1564,-0.0281 0.3121,-0.0799 0.4473,-0.1724 0.106,-0.0345 0.2602,-0.0286 0.2659,-0.1828 0.1326,-0.005 0.2636,-0.009 0.4028,-0.013 -0.003,-0.0338 -0.008,-0.1012 -0.0117,-0.1344 0.1426,-0.0246 0.2875,-0.0527 0.434,-0.0805 l -0.0229,-0.0881 c 0.2701,8e-4 0.4841,-0.1871 0.7486,-0.2192 0.002,-0.0246 0.005,-0.0742 0.007,-0.0989 0.1276,-0.0354 0.3121,-0.005 0.364,-0.1647 0.1244,-0.0164 0.248,-0.032 0.3798,-0.0462 -0.002,-0.0303 -0.008,-0.0921 -0.0108,-0.1233 0.3303,0.004 0.6112,-0.1624 0.9108,-0.267 l -0.006,-0.0675 c 0.1218,-0.0402 0.3336,0.0139 0.36,-0.1681 0.125,-0.0147 0.2502,-0.0286 0.3835,-0.0428 -0.002,-0.0303 -0.006,-0.0904 -0.009,-0.121 0.1573,-0.023 0.3764,0.0232 0.4547,-0.1622 0.1292,-0.0272 0.2636,-0.0544 0.3985,-0.0791 l -0.0263,-0.0873 c 0.1828,-0.0181 0.3838,-0.0246 0.5247,-0.1655 0.1071,-0.0527 0.2982,-0.0108 0.3376,-0.1621 0.1386,-0.0397 0.3648,0.0311 0.4093,-0.1582 0.1434,-0.0289 0.2891,-0.0593 0.4365,-0.0924 0.0553,-0.1514 0.2398,-0.0896 0.3617,-0.1341 0,-0.0255 9e-4,-0.0765 0.001,-0.1029 0.188,-0.0323 0.3773,-0.0692 0.5692,-0.1015 l -0.0172,-0.0839 c 0.1301,-0.0247 0.261,-0.0527 0.3962,-0.0816 0.0995,-0.0995 0.2305,-0.144 0.3722,-0.1613 l -0.0116,-0.0717 c 0.2044,-0.0403 0.411,-0.0791 0.6211,-0.108 0.0295,-0.1868 0.2372,-0.1194 0.3747,-0.1449 l -0.0198,-0.093 c 0.1961,-0.0717 0.4975,0.005 0.612,-0.2117 0.1136,-0.0131 0.2347,-0.0247 0.3566,-0.0363 0.0113,-0.1976 0.2296,-0.1276 0.3673,-0.1556 l -0.0207,-0.0964 c 0.163,-0.0286 0.3286,-0.0567 0.4975,-0.0813 l -0.008,-0.0874 c 0.1415,-0.0249 0.284,-0.0487 0.4314,-0.07 l -0.0164,-0.089 c 0.1426,-0.0224 0.2874,-0.0462 0.4357,-0.066 0,-0.0238 0.002,-0.0706 0.002,-0.0939 0.1358,-0.0212 0.2775,-0.0445 0.4192,-0.0657 l -0.0141,-0.089 c 0.1374,-0.0139 0.2727,-0.0281 0.4167,-0.042 0,-0.0289 8e-4,-0.0847 8e-4,-0.1128 0.1862,-0.0255 0.373,-0.0536 0.5635,-0.0825 6e-4,-0.0238 0.003,-0.0709 0.005,-0.0947 0.163,-0.0272 0.3294,-0.0567 0.4975,-0.0839 l -0.0124,-0.0782 c 0.1465,-0.0238 0.2939,-0.0502 0.4447,-0.076 l -0.0295,-0.087 c 0.2058,-0.0272 0.4125,-0.0595 0.6208,-0.0981 0.0955,-0.2018 0.3453,-0.1335 0.5273,-0.1655 l -0.003,-0.0825 c 0.1284,-0.0286 0.2585,-0.0584 0.3912,-0.0896 0.1531,-0.1154 0.3501,-0.1213 0.536,-0.146 l -0.0187,-0.083 c 0.1925,-0.0306 0.3861,-0.0618 0.5831,-0.0899 l -0.015,-0.0864 c 0.14,-0.019 0.28,-0.0403 0.4257,-0.0593 0,-0.0246 0,-0.0725 9e-4,-0.0964 0.1664,-0.0229 0.3362,-0.0493 0.5074,-0.0748 l -0.0181,-0.0864 c 0.3821,0.0172 0.71,-0.2152 1.087,-0.2299 0,-0.0221 0.002,-0.0658 0.003,-0.0882 z" style="fill:#fee801;fill-rule:evenodd" id="path36"/>
    <path d="m 368.3908,367.9092 c 0.1647,-0.1465 0.4136,-0.4941 0.6367,-0.2123 -0.1613,0.0995 -0.3277,0.182 -0.5006,0.2469 -0.0116,0.1491 -0.1607,0.1457 -0.2701,0.1664 8e-4,0.0346 0.003,0.1029 0.005,0.1366 -0.0658,9e-4 -0.1967,9e-4 -0.2628,9e-4 0.004,0.0354 0.0133,0.1054 0.0181,0.1409 -0.1119,0.0306 -0.2403,0.0345 -0.2891,0.1547 -0.0904,0.0505 -0.1752,0.1007 -0.2528,0.1625 -0.0905,0.0484 -0.1843,0.0921 -0.2387,0.1811 -0.0726,0.0329 -0.1434,0.0658 -0.2118,0.0989 -0.2503,0.1933 -0.5351,0.3368 -0.7699,0.5491 -0.089,0.0513 -0.1737,0.104 -0.2537,0.1607 -0.1729,0.0973 -0.3393,0.2044 -0.4858,0.3359 -0.1573,0.0808 -0.3047,0.1729 -0.4448,0.2761 -0.1006,0.0749 -0.2009,0.1483 -0.299,0.2197 -0.0808,0.0527 -0.1565,0.1055 -0.2305,0.1599 -0.1516,0.1128 -0.3064,0.2217 -0.4861,0.2792 l 0.008,0.0561 c -0.2503,0.1259 -0.4612,0.3161 -0.7072,0.447 -0.0766,0.0825 -0.182,0.1211 -0.2801,0.1591 l -0.002,0.047 c -0.0921,0.0338 -0.1599,0.093 -0.2035,0.1769 -0.0411,0.008 -0.1233,0.0247 -0.1647,0.0329 -0.1103,0.0981 -0.2183,0.1978 -0.3226,0.299 -0.104,0.0321 -0.2061,0.0644 -0.3047,0.0964 10e-4,0.0363 0.006,0.1103 0.008,0.1474 -0.0544,0.003 -0.1633,0.007 -0.2174,0.0108 -0.0661,0.083 -0.1335,0.1621 -0.2036,0.2387 -0.1006,0.038 -0.1953,0.0833 -0.2744,0.1516 -0.0813,0.0576 -0.1612,0.1128 -0.2403,0.1656 -0.2537,0.159 -0.4967,0.3328 -0.7421,0.5023 -0.0692,0.0354 -0.1358,0.0717 -0.2002,0.108 -0.0799,0.0567 -0.1581,0.1145 -0.2321,0.1729 -0.0783,0.0691 -0.1565,0.1375 -0.2308,0.2058 -0.1859,0.0774 -0.3441,0.2001 -0.4915,0.3328 -0.0916,0.0445 -0.1794,0.0907 -0.248,0.163 -0.0774,0.0569 -0.1522,0.1136 -0.2248,0.1714 -0.074,0.0312 -0.1457,0.0624 -0.214,0.0939 -0.0783,0.1236 -0.2217,0.1508 -0.3493,0.1803 9e-4,0.0345 0.003,0.1046 0.005,0.1391 -0.0437,9e-4 -0.131,0.002 -0.1747,0.003 9e-4,0.0394 9e-4,0.1168 9e-4,0.1565 -0.055,0.002 -0.1661,0.009 -0.2214,0.0122 -0.0142,0.1516 -0.1599,0.1516 -0.2735,0.1788 8e-4,0.0321 0.003,0.0947 0.005,0.1259 -0.0635,0.007 -0.1897,0.0207 -0.2529,0.0272 0.002,0.0354 0.004,0.1063 0.005,0.1426 -0.0518,0.007 -0.1547,0.0238 -0.2058,0.032 -0.1187,0.1698 -0.3007,0.2701 -0.4637,0.3872 -0.0476,0.0204 -0.1432,0.061 -0.1919,0.0814 -0.0717,0.0924 -0.1565,0.1723 -0.2455,0.2455 -0.1341,0.0479 -0.2511,0.1244 -0.3484,0.2247 -0.0411,0.0125 -0.1233,0.0372 -0.1647,0.0496 -0.0272,0.1168 -0.1408,0.1392 -0.2347,0.1738 -0.0527,0.0641 -0.1077,0.1227 -0.1672,0.1769 -0.1341,0.0941 -0.3441,0.1063 -0.3977,0.2835 -0.0346,0.002 -0.1038,0.005 -0.1383,0.007 l 0.005,0.0751 c -0.1639,0.0865 -0.3096,0.1993 -0.4471,0.3203 -0.0864,0.0559 -0.1706,0.112 -0.2528,0.1678 -0.0899,0.0527 -0.1755,0.1055 -0.2554,0.1673 -0.0567,0.0518 -0.112,0.1046 -0.1638,0.1573 -0.1012,0.0354 -0.2101,0.0626 -0.2413,0.1794 -0.0397,0.01 -0.1202,0.0289 -0.1598,0.038 -0.2314,0.2208 -0.5196,0.3648 -0.7643,0.5658 -0.0921,0.0791 -0.2043,0.127 -0.3129,0.1706 -0.1491,0.228 -0.4382,0.2948 -0.5857,0.5236 -0.1028,0.0337 -0.2108,0.0618 -0.2412,0.1797 -0.0397,0.0108 -0.1185,0.0329 -0.159,0.0445 -0.0791,0.0904 -0.1845,0.1514 -0.2982,0.1795 0,0.0255 -6e-4,0.0765 -6e-4,0.102 -0.2134,0.0414 -0.3929,0.1616 -0.5281,0.3263 -0.098,0.0371 -0.1941,0.0774 -0.2463,0.1712 -0.0723,0.0363 -0.1423,0.0717 -0.2106,0.1071 -0.0264,0.0304 -0.0782,0.0905 -0.1038,0.1211 -0.1253,0.0635 -0.2429,0.1366 -0.3543,0.2174 -0.1457,0.14 -0.3104,0.2602 -0.5014,0.326 -0.0134,0.1343 -0.1285,0.1516 -0.2356,0.1672 -0.1772,0.2143 -0.4127,0.3699 -0.6565,0.4949 -0.0675,0.08 -0.1604,0.1245 -0.2478,0.1698 -0.1162,0.0913 -0.2437,0.1704 -0.3271,0.294 -0.0428,0.003 -0.1275,0.01 -0.1703,0.0133 -0.0255,0.1423 -0.1622,0.1588 -0.2702,0.195 -0.002,0.0321 -0.005,0.0956 -0.006,0.1279 -0.0346,10e-4 -0.102,0.006 -0.1366,0.007 -0.0224,0.1275 -0.1361,0.153 -0.2407,0.1785 -0.102,0.1525 -0.2741,0.2308 -0.4192,0.332 -0.0791,0.0618 -0.163,0.1136 -0.2447,0.1647 -0.0705,0.0915 -0.1811,0.127 -0.2814,0.1638 -0.0675,0.0709 -0.1336,0.1417 -0.197,0.2143 -0.1687,0.0731 -0.349,0.1573 -0.4159,0.3424 -0.055,0.003 -0.1647,0.0117 -0.22,0.0151 0.002,0.0345 0.005,0.102 0.008,0.1357 -0.2316,0.0148 -0.347,0.2495 -0.5709,0.281 -9e-4,0.0328 -0.002,0.0977 -0.003,0.1309 -0.06,0.005 -0.1811,0.0139 -0.2412,0.0187 -0.002,0.0355 -0.005,0.1055 -0.007,0.1409 -0.0436,0.002 -0.1309,0.005 -0.1746,0.007 l 0.019,0.1103 c -0.038,0.002 -0.1128,0.006 -0.1508,0.008 -0.0295,0.1029 -0.0981,0.1621 -0.2058,0.1763 0.002,0.0312 0.005,0.0938 0.006,0.1242 -0.0617,0.003 -0.1845,0.009 -0.2463,0.0116 -0.001,0.0329 -0.006,0.1006 -0.008,0.1335 -0.1738,0.0221 -0.2849,0.1565 -0.4258,0.2395 -0.2347,0.1565 -0.4768,0.3039 -0.6794,0.5001 -0.0363,0.0113 -0.1077,0.0345 -0.144,0.0467 -0.0437,0.0428 -0.131,0.1296 -0.1755,0.1724 -4.981,3.6218 -9.8442,7.4021 -14.7634,11.1067 -7.7357,5.8819 -15.4865,11.7499 -23.4626,17.3041 -5.1582,3.6309 -10.4752,7.0653 -16.1085,9.9198 -2.7193,1.3473 -5.5145,2.5606 -8.4183,3.4515 -1.9503,0.5981 -3.9623,1.0074 -5.9973,1.1571 -1.6784,0.0782 -3.3792,0.0782 -5.0255,-0.2957 -1.7955,-0.377 -3.5388,-1.0607 -5.0601,-2.0933 -2.4846,-1.6152 -4.3294,-3.9788 -6.1841,-6.2436 -1.3745,-1.6909 -2.8973,-3.2539 -4.4711,-4.7586 -1.6135,-1.4964 -3.2542,-2.9715 -5.0199,-4.2882 -2.2317,-1.7255 -4.5484,-3.3429 -6.9565,-4.8147 -2.6634,-1.6044 -5.4399,-3.0645 -8.4064,-4.0266 -0.5485,-0.1893 -1.1217,-0.2996 -1.6637,-0.5071 3.4345,-0.2208 6.8769,-0.3929 10.3196,-0.2818 0.2741,-0.004 0.5023,0.1639 0.7279,0.2974 4.9604,2.9064 9.5485,6.4494 13.612,10.5177 2.3431,2.3836 4.5519,4.8937 6.7617,7.3998 0.9519,1.0239 1.8389,2.1183 2.9285,3.0045 1.1571,0.9652 2.4996,1.7229 3.9532,2.1373 1.9321,0.5573 3.9728,0.4759 5.9494,0.2486 3.501,-0.4391 6.8638,-1.6144 10.0774,-3.0365 5.9922,-2.6725 11.6229,-6.0772 17.098,-9.6746 1.2181,-0.8119 2.4305,-1.6322 3.6502,-2.441 2.6133,-1.8002 5.209,-3.6246 7.7993,-5.4578 5.1604,-3.7003 10.3144,-7.4114 15.4519,-11.1447 3.4557,-2.5018 6.9245,-4.9875 10.4057,-7.454 l -0.1038,-0.0198 -0.0518,-0.01 c 0.1366,-0.0471 0.3665,0.019 0.4019,-0.1812 0.0377,-0.003 0.112,-0.0107 0.1491,-0.0141 -0.004,-0.0338 -0.0133,-0.1004 -0.0181,-0.1333 0.1842,-0.01 0.3484,-0.0873 0.4569,-0.2415 0.0502,-0.009 0.15,-0.0263 0.2002,-0.0351 -0.003,-0.0349 -0.007,-0.1041 -0.01,-0.1386 0.0553,-0.007 0.1647,-0.0213 0.22,-0.0287 0.0164,-0.1301 0.1352,-0.1516 0.2455,-0.1811 0.0445,-0.0717 0.0913,-0.1434 0.1392,-0.216 0.0898,-0.0329 0.1811,-0.0675 0.2749,-0.102 0.0338,-0.1137 0.1409,-0.1401 0.2421,-0.1738 0.108,-0.1474 0.2982,-0.1967 0.426,-0.3268 0.0823,-0.0536 0.167,-0.1063 0.2535,-0.1599 0.0734,-0.0734 0.159,-0.1344 0.2596,-0.1704 l 0.005,-0.0519 c 0.1046,-0.0141 0.1704,-0.0725 0.1976,-0.1746 0.0544,-0.006 0.1616,-0.0173 0.2152,-0.0232 8e-4,-0.0303 0.002,-0.093 0.003,-0.1236 0.1006,-0.0442 0.2537,-0.036 0.2849,-0.1752 0.0362,-0.005 0.108,-0.0159 0.1434,-0.0215 -0.005,-0.0346 -0.0164,-0.1038 -0.0221,-0.1392 0.1397,-0.0139 0.3285,-0.0108 0.3606,-0.1928 0.0371,0.003 0.1119,0.008 0.1491,0.0108 -9e-4,-0.0354 -0.003,-0.108 -0.004,-0.1434 0.1236,-0.0355 0.248,-0.0723 0.3756,-0.1094 0.0116,-0.1253 0.121,-0.1483 0.2265,-0.1781 0.0553,-0.0575 0.1119,-0.1142 0.1729,-0.1695 0.127,-0.0609 0.2497,-0.14 0.337,-0.2554 0.046,-0.0139 0.1375,-0.0411 0.1837,-0.055 0.0723,-0.0595 0.1466,-0.1187 0.2257,-0.1763 0.1094,-0.093 0.2205,-0.1854 0.3342,-0.2766 0.0388,-0.0108 0.117,-0.0315 0.1556,-0.0414 0.0363,-0.1128 0.1417,-0.1406 0.2438,-0.1738 0.0527,-0.0592 0.1105,-0.1151 0.1723,-0.1678 0.0831,-0.0709 0.1851,-0.1123 0.2906,-0.1483 l -0.009,-0.0617 c 0.14,-0.0519 0.2826,-0.112 0.3829,-0.2308 0.038,-0.0108 0.1154,-0.0312 0.1534,-0.0411 0.0394,-0.0734 0.0955,-0.1327 0.167,-0.178 0.0825,-0.0541 0.1672,-0.1077 0.2554,-0.1587 0.1071,-0.0692 0.2066,-0.15 0.3064,-0.2333 0.0363,-0.006 0.1086,-0.0173 0.1448,-0.023 -8e-4,-0.0303 -0.003,-0.0913 -0.005,-0.1219 0.1276,-0.0281 0.2577,-0.0675 0.3541,-0.1664 0.0561,-0.0411 0.1136,-0.0813 0.1746,-0.1227 0.0743,-0.0814 0.1763,-0.1242 0.28,-0.163 l -0.006,-0.0748 c 0.0467,-0.004 0.1423,-0.0125 0.1893,-0.0165 -0.002,-0.0354 -0.007,-0.1063 -0.01,-0.1426 0.0476,0.005 0.1434,0.0131 0.1911,0.0182 -0.003,-0.0397 -0.01,-0.1194 -0.0131,-0.1591 0.0632,-0.007 0.1902,-0.0198 0.2534,-0.0272 -10e-4,-0.0346 -0.004,-0.1037 -0.006,-0.1383 0.0652,-0.005 0.1953,-0.0156 0.2602,-0.0207 -0.003,-0.0329 -0.0108,-0.0995 -0.0147,-0.1332 0.1539,-0.0233 0.3169,-0.0536 0.4215,-0.1837 0.0603,-0.0329 0.1227,-0.0661 0.1871,-0.0989 0.0462,-0.1063 0.153,-0.131 0.2537,-0.1639 0.1012,-0.0816 0.2032,-0.1621 0.3086,-0.2412 0.0372,-0.004 0.1097,-0.0108 0.146,-0.0142 -0.003,-0.036 -0.01,-0.1068 -0.0133,-0.1431 0.0502,-0.007 0.1508,-0.0199 0.201,-0.0264 0.1094,-0.1253 0.2568,-0.2066 0.4019,-0.2883 0.0814,-0.0535 0.1664,-0.1063 0.2512,-0.1607 0.1556,-0.1375 0.3319,-0.2503 0.5394,-0.2914 9e-4,-0.0306 0.002,-0.0921 0.002,-0.1227 0.0346,-0.004 0.1038,-0.0125 0.1384,-0.0165 0.0938,-0.0898 0.195,-0.1754 0.3021,-0.2537 0.089,-0.0263 0.1812,-0.0558 0.2744,-0.0873 0.0403,-0.1063 0.1432,-0.1375 0.2429,-0.1738 0.1185,-0.1357 0.2742,-0.233 0.4315,-0.3211 0.1006,-0.0709 0.201,-0.1417 0.3056,-0.2118 0.0847,-0.055 0.187,-0.0963 0.2454,-0.1885 0.0386,-0.007 0.1168,-0.0207 0.1557,-0.028 0.108,-0.1004 0.2338,-0.1795 0.3466,-0.2775 0.0947,-0.038 0.2061,-0.0675 0.2316,-0.1868 0.0377,0 0.1143,-0.002 0.1522,-0.003 -0.002,-0.0363 -0.006,-0.1088 -0.007,-0.1448 0.1547,-0.0341 0.4067,0.026 0.424,-0.201 0.0298,0.001 0.0899,0.005 0.1194,0.007 0.0249,-0.1772 0.2406,-0.1539 0.3206,-0.2925 0.1102,-0.0411 0.2494,-0.0542 0.3146,-0.173 0.237,-0.1037 0.4487,-0.2511 0.667,-0.3911 0.0995,-0.0281 0.2092,-0.0559 0.2274,-0.1812 0.0549,-0.006 0.1655,-0.019 0.2196,-0.0255 0,-0.0354 0,-0.108 0,-0.144 0.0545,-0.005 0.1642,-0.015 0.2192,-0.0198 0.0164,-0.1426 0.155,-0.1466 0.2692,-0.1772 l 9e-4,-0.0558 c 0.1811,-0.0981 0.3557,-0.2078 0.5247,-0.328 0.1434,-0.0986 0.29,-0.1959 0.4496,-0.2724 0.1006,-0.07 0.2001,-0.1443 0.299,-0.2225 0.2948,-0.1219 0.5451,-0.3246 0.8144,-0.4933 0.2957,-0.1309 0.5627,-0.3163 0.8345,-0.4918 0.0715,-0.0558 0.1483,-0.1111 0.2248,-0.1672 0.093,-0.0352 0.1894,-0.0697 0.2883,-0.1052 0.1176,-0.136 0.2724,-0.2333 0.4479,-0.28 0,-0.0264 -0.002,-0.0783 -0.002,-0.1038 0.4374,-0.0833 0.7619,-0.4218 1.1588,-0.6012 l -0.002,-0.0593 c 0.1071,-0.0297 0.2191,-0.0635 0.2851,-0.1655 0.116,-0.0414 0.237,-0.0799 0.3606,-0.1162 v -0.0445 c 0.0717,-0.0519 0.1426,-0.1063 0.2135,-0.1639 0.0873,-0.0402 0.1768,-0.0791 0.2718,-0.117 0.1358,-0.0888 0.2699,-0.1829 0.4003,-0.2849 0.0411,-0.006 0.1241,-0.019 0.1661,-0.0247 0.0717,-0.1054 0.1788,-0.1772 0.2843,-0.2494 0.0459,-0.0117 0.1383,-0.0346 0.1845,-0.0462 0.1052,-0.089 0.2231,-0.1608 0.3498,-0.2217 0.1106,-0.0618 0.2118,-0.1392 0.3056,-0.2273 0.1145,-0.0329 0.2316,-0.0641 0.3518,-0.0964 0.1012,-0.1803 0.3228,-0.2279 0.4884,-0.3359 0.0913,-0.0848 0.2114,-0.1211 0.3302,-0.163 0.0454,-0.1063 0.1548,-0.1301 0.2551,-0.1698 0.1871,-0.1194 0.4193,-0.1894 0.5545,-0.377 0.1077,-0.0528 0.2718,-0.0414 0.3302,-0.1729 0.112,-0.0397 0.2554,-0.0431 0.3337,-0.1525 0.0394,-0.0239 0.1184,-0.0726 0.1578,-0.0964 0.0463,0 0.1378,-9e-4 0.1837,-9e-4 z" style="fill:#fee801;fill-rule:evenodd" id="path38"/>
  </g>
</svg>